<svg version="1.1" id="Layer_1" xmlns="http://www.w3.org/2000/svg" xmlns:xlink="http://www.w3.org/1999/xlink" x="0px" y="0px"
	 width="100%" viewBox="0 0 1280 800" enable-background="new 0 0 1280 800" xml:space="preserve">
<path fill="#000000" opacity="1.000000" stroke="none" 
	d="
M701.000000,801.000000 
	C467.361298,801.000000 234.222626,801.000000 1.041965,801.000000 
	C1.041965,534.393311 1.041965,267.786621 1.041965,1.089958 
	C427.555481,1.089958 854.111023,1.089958 1280.833252,1.089958 
	C1280.833252,267.666595 1280.833252,534.333252 1280.833252,801.000000 
	C1087.786377,801.000000 894.643188,801.000000 701.000000,801.000000 
M654.031433,295.097107 
	C653.686890,291.335999 653.420044,287.565796 652.982361,283.815552 
	C651.950500,274.974304 648.934814,267.050690 641.763550,260.477753 
	C641.213806,260.300262 640.664001,260.122803 639.736511,259.331573 
	C632.015564,254.569443 624.066772,253.604553 615.354797,256.805023 
	C600.091736,262.412140 589.850464,273.931244 580.062988,285.985657 
	C574.825256,292.436462 570.103149,299.305878 565.030457,305.183044 
	C565.358765,301.013397 563.618103,298.050171 559.968018,295.390045 
	C560.645508,287.854187 561.818359,280.322693 561.885437,272.781403 
	C561.988525,261.188324 561.843262,249.544769 560.855957,238.003677 
	C559.846741,226.206604 556.264404,215.073807 550.025879,204.747421 
	C539.792053,187.808029 512.021729,183.428101 497.081024,196.228409 
	C488.655304,203.447067 483.661285,212.555283 480.012390,222.633652 
	C472.009918,244.736526 470.427399,267.809113 470.010468,291.034668 
	C469.932922,295.355743 469.999420,299.679382 469.999420,304.885040 
	C464.354706,293.326385 459.475006,282.638824 453.992767,272.269867 
	C445.613068,256.420776 435.302704,241.854630 420.582001,231.317062 
	C409.490295,223.377274 397.096069,219.799866 383.174133,225.680481 
	C382.433380,226.088043 381.692657,226.495605 380.238220,227.003159 
	C368.671753,232.624634 363.967621,245.361237 367.403076,259.993927 
	C371.734100,278.440948 379.912354,295.168121 390.368347,310.679108 
	C401.982025,327.907440 414.554840,344.489258 426.307434,361.704803 
	C426.181671,361.831207 426.055878,361.957611 425.203857,361.990387 
	C408.356537,353.465454 390.739044,347.006897 371.894806,345.273590 
	C360.990570,344.270538 350.280396,346.184784 342.993073,356.475037 
	C342.993073,356.475037 343.006348,356.785706 342.369354,357.155487 
	C340.579559,363.000427 337.828003,368.744781 337.203857,374.711670 
	C335.973450,386.474487 341.912292,395.931824 349.664581,404.044678 
	C360.306732,415.181763 373.348083,423.242828 387.064758,429.844269 
	C401.727692,436.901154 416.973816,442.746185 431.994232,450.029938 
	C430.999420,463.321320 429.910797,476.606567 429.037384,489.905914 
	C428.237122,502.091187 427.773407,514.298706 426.954651,526.482483 
	C426.548584,532.524536 425.773804,538.547913 424.993134,544.557251 
	C424.015900,552.079590 428.131500,557.000549 435.601013,557.000000 
	C536.406250,556.991943 637.211487,556.984253 738.016724,556.966492 
	C740.346008,556.966064 742.675354,556.848999 745.620544,556.957397 
	C746.046204,556.989685 746.471802,557.021973 747.420593,557.749146 
	C763.660156,557.504517 779.931519,557.807251 796.130676,556.866699 
	C813.493286,555.858582 830.844971,554.121399 848.095825,551.886475 
	C864.588806,549.749756 880.239075,544.640259 894.076050,534.974976 
	C905.518738,526.982056 910.524475,510.129333 907.010986,498.167969 
	C906.780457,497.461945 906.549927,496.755920 906.046936,495.362488 
	C901.748108,485.143860 893.125793,480.506714 883.074341,478.085083 
	C878.010803,476.865173 872.756104,476.088409 867.555664,475.866486 
	C859.188477,475.509491 850.784912,475.532654 842.415039,475.861298 
	C835.891785,476.117462 829.396423,477.082367 822.695129,477.751617 
	C830.854858,472.076477 838.720154,466.527313 846.665344,461.095062 
	C869.285583,445.629120 890.601562,428.699036 907.576233,406.902588 
	C913.275269,399.584717 917.441956,391.390045 918.859985,382.226349 
	C920.093018,374.258057 916.563110,367.585632 910.933105,361.279907 
	C910.261292,360.906342 909.589417,360.532745 908.307556,359.811096 
	C895.814514,350.469604 882.306824,350.147095 868.219727,355.379883 
	C851.232788,361.689850 837.472717,372.891083 824.578552,385.113007 
	C816.800659,392.485352 809.927368,400.811981 802.295349,408.307312 
	C802.168945,408.181580 802.042480,408.055817 802.016724,407.173859 
	C808.227417,389.256409 813.510132,371.154877 816.224121,352.272003 
	C818.191223,338.585083 819.214050,325.015259 815.881836,311.581482 
	C810.836121,291.239594 797.290466,280.470703 776.335571,281.119690 
	C760.536926,281.609009 746.255371,296.129822 738.061035,311.975494 
	C715.049072,311.947601 692.037048,311.919708 669.005005,310.993225 
	C669.003296,309.180328 668.833130,307.348846 669.031128,305.558014 
	C669.651855,299.943726 666.459534,296.859406 661.735352,295.493927 
	C659.445374,294.832062 656.692566,295.771545 654.031433,295.097107 
M705.594482,609.943359 
	C708.117065,609.499146 710.627014,608.951233 713.165955,608.640808 
	C715.528381,608.352112 718.745972,609.168823 720.049500,607.908508 
	C721.160217,606.834656 720.894714,602.999207 719.821533,601.259155 
	C716.769836,596.311279 718.451111,593.047852 722.457581,590.023804 
	C723.245789,589.428833 723.912170,588.662170 724.590088,587.933167 
	C727.259277,585.062683 726.609985,582.231995 723.054504,581.702942 
	C715.230286,580.538696 711.599670,577.138855 712.821411,568.764587 
	C713.338013,565.223877 710.058044,563.870911 706.836670,565.725830 
	C705.719604,566.369019 704.469177,566.977539 703.661560,567.926758 
	C700.383972,571.779358 697.288147,570.986511 693.640381,568.299072 
	C691.593384,566.791016 688.849854,566.228394 686.420166,565.239868 
	C685.614014,567.628113 683.874756,570.143921 684.180298,572.380249 
	C685.027039,578.577454 681.057495,579.686768 676.671875,581.052307 
	C674.673340,581.674683 672.908142,583.046509 671.037109,584.078369 
	C672.234863,586.093384 672.950500,588.940491 674.721313,589.966370 
	C679.917603,592.976807 681.035156,596.133301 677.497131,601.286438 
	C676.344910,602.964600 676.894653,605.811401 676.665955,608.123657 
	C679.036682,608.292297 681.593567,609.111938 683.740540,608.497986 
	C688.653687,607.093018 691.968811,607.988220 693.613770,613.122925 
	C693.905457,614.033325 694.473816,614.862610 694.963135,615.700989 
	C697.382385,619.845520 699.408813,619.953552 701.980225,615.991516 
	C703.117676,614.238831 704.047668,612.351562 705.594482,609.943359 
M369.633698,515.063293 
	C368.888733,515.373779 368.119659,515.637207 367.403564,516.004089 
	C365.607269,516.924316 362.788574,517.556396 362.347534,518.934082 
	C361.906921,520.310181 363.635925,522.616516 364.827576,524.204529 
	C365.765778,525.454773 367.697144,525.999207 368.521912,527.284302 
	C369.405640,528.661133 369.947815,530.568359 369.834839,532.187927 
	C369.717773,533.866455 368.385071,535.427368 368.042969,537.131775 
	C367.652161,539.079102 367.015900,541.622498 367.904877,542.973450 
	C368.594543,544.021545 371.524536,544.068542 373.353851,543.812256 
	C381.548798,542.664062 380.761078,541.118103 385.249695,549.514282 
	C386.033051,550.979614 388.010223,552.853638 389.285065,552.746277 
	C390.903900,552.609924 392.945496,550.962158 393.800110,549.412109 
	C397.532654,542.642334 397.381378,542.696533 405.196564,543.877075 
	C407.171783,544.175476 410.380066,544.059937 411.109283,542.915771 
	C412.041565,541.452942 411.582733,538.518738 410.767395,536.631714 
	C407.805145,529.775696 407.751465,529.950500 413.371277,524.991333 
	C414.960968,523.588501 416.769012,521.282654 416.663971,519.497742 
	C416.588806,518.220276 413.640808,516.698120 411.715698,516.016541 
	C404.280334,513.384216 404.366547,513.486450 403.898163,505.286194 
	C403.800293,503.572815 402.796204,501.344299 401.471619,500.464539 
	C400.568390,499.864655 398.350586,501.114471 396.780579,501.698608 
	C395.892792,502.028900 395.006989,502.561127 394.325592,503.215973 
	C391.099762,506.315948 388.169495,506.098877 384.641479,503.343140 
	C382.508484,501.677094 379.505890,501.124359 376.894012,500.071381 
	C376.262695,502.819000 375.118561,505.568115 375.126801,508.313843 
	C375.137665,511.930756 374.430939,514.442322 369.633698,515.063293 
M712.058228,275.379730 
	C708.178345,265.541626 708.244690,265.614380 714.483276,259.926880 
	C715.695374,258.821838 717.103271,256.615601 716.739380,255.435989 
	C716.298950,254.008255 714.227966,252.569275 712.589783,252.111572 
	C704.123413,249.746017 704.167786,249.852936 703.932861,241.003204 
	C703.889282,239.359573 703.406372,236.862289 702.345886,236.338318 
	C701.124756,235.735001 698.976135,236.720825 697.346619,237.328354 
	C696.165466,237.768707 694.862061,238.492310 694.151978,239.477829 
	C691.245300,243.511856 688.324890,241.922638 685.367859,239.720978 
	C684.442871,239.032242 683.798035,237.780289 682.797241,237.421692 
	C681.053711,236.796997 679.031372,236.189621 677.335388,236.552826 
	C676.617249,236.706619 676.105286,239.323624 676.053284,240.840057 
	C675.746948,249.775391 675.771179,249.667984 667.011841,252.130692 
	C665.223083,252.633591 662.596924,254.160385 662.443604,255.461197 
	C662.253479,257.074310 663.850159,259.429230 665.346741,260.618317 
	C671.975586,265.885101 671.977600,265.736115 668.703979,272.814697 
	C667.874268,274.608795 667.774414,276.740479 667.339172,278.717010 
	C669.508545,279.143585 671.966736,280.441803 673.794250,279.836426 
	C679.743652,277.865479 683.322205,279.198822 685.292847,285.414917 
	C685.867981,287.229248 688.250366,288.470703 689.804321,289.974762 
	C691.371643,288.311401 693.503906,286.903564 694.394531,284.934174 
	C696.590027,280.079773 699.042847,277.552856 704.999451,279.691498 
	C707.214355,280.486755 712.701904,282.611786 712.058228,275.379730 
M821.999451,236.248230 
	C822.273987,240.871765 818.018982,240.303482 815.782471,240.765320 
	C811.055847,241.741272 812.006592,243.939346 813.968140,246.322128 
	C815.520874,248.208267 817.711426,249.569275 819.427551,251.003723 
	C818.331543,253.321472 817.397339,254.713058 817.027100,256.241241 
	C816.643066,257.826416 816.805115,259.543915 816.728271,261.203522 
	C818.245911,261.242615 819.828796,261.578766 821.268372,261.262512 
	C824.884338,260.468048 827.306458,261.005737 829.101929,264.854126 
	C831.694946,270.412109 834.245605,270.590576 836.685120,265.476349 
	C838.598633,261.464722 840.485168,259.742249 844.916992,261.820496 
	C846.056335,262.354767 848.511536,261.770111 849.316650,260.816589 
	C850.008484,259.997253 849.373474,257.879913 849.027161,256.406586 
	C848.601135,254.594498 847.865906,252.855103 847.269348,251.098846 
	C848.554077,249.863968 849.651001,248.843857 850.709961,247.785736 
	C855.268127,243.231506 855.098816,242.337662 849.035828,240.559311 
	C845.892273,239.637283 843.234070,238.795868 843.874939,234.474686 
	C844.124146,232.794220 842.967896,230.905319 842.451782,229.111359 
	C840.497864,229.718964 837.951904,229.760300 836.714783,231.053589 
	C834.232727,233.648117 832.364502,232.833954 829.818604,231.440674 
	C827.842651,230.359314 825.459167,230.022568 823.256897,229.354858 
	C822.837952,231.360779 822.419006,233.366699 821.999451,236.248230 
z"/>
<path fill="#9B78C2" opacity="1.000000" stroke="none" 
	d="
M669.025146,311.891785 
	C692.037048,311.919708 715.049072,311.947601 738.987793,311.961426 
	C744.970215,312.010498 750.025879,312.073639 755.336670,312.339783 
	C761.960754,315.193848 762.199463,320.675507 761.910278,326.351074 
	C760.972107,344.763733 759.942444,363.171936 759.057739,381.587128 
	C758.316223,397.022156 757.712402,412.463898 757.076111,427.903870 
	C756.049744,452.810852 754.993103,477.716736 754.056091,502.627106 
	C753.568481,515.588623 753.456848,528.565247 752.882629,541.522095 
	C752.610291,547.666687 752.217163,554.074951 745.004639,556.786377 
	C742.675354,556.848999 740.346008,556.966064 738.016724,556.966492 
	C637.211487,556.984253 536.406250,556.991943 435.601013,557.000000 
	C428.131500,557.000549 424.015900,552.079590 424.993134,544.557251 
	C425.773804,538.547913 426.548584,532.524536 426.954651,526.482483 
	C427.773407,514.298706 428.237122,502.091187 429.037384,489.905914 
	C429.910797,476.606567 430.999420,463.321320 432.264038,449.269775 
	C433.369385,437.063965 434.204926,425.618286 435.144623,413.827972 
	C435.232880,413.005585 435.216949,412.527832 435.378418,411.679993 
	C436.609772,397.434998 437.721588,383.564117 438.702271,369.684021 
	C439.823120,353.820312 440.827362,337.948425 441.961670,321.726929 
	C442.089447,320.658478 442.137756,319.943115 442.414612,318.974091 
	C445.131226,313.616394 449.311890,311.926544 454.841278,311.939697 
	C479.071350,311.997437 503.301941,311.840546 527.805969,311.836395 
	C528.651428,311.880310 529.223328,311.849335 530.271240,311.876190 
	C535.788025,311.921356 540.828613,311.908722 545.899902,312.370483 
	C545.948669,317.001678 545.872681,321.161621 546.009460,325.314514 
	C546.169250,330.163300 550.309570,333.994537 555.116577,333.939148 
	C560.403992,333.878204 563.849731,330.607056 564.024353,325.298187 
	C564.171753,320.813324 564.148499,316.322845 564.655151,311.877136 
	C582.369568,311.898987 599.629578,311.878571 617.224304,311.914703 
	C618.005432,311.924194 618.451843,311.877136 619.370544,311.884521 
	C629.869568,311.937073 639.896301,311.935211 649.945923,312.404572 
	C649.978760,316.374146 649.961853,319.872864 650.004700,323.370850 
	C650.085327,329.956787 653.599915,333.925110 659.334351,333.955505 
	C664.825256,333.984619 668.728333,329.743378 668.927429,323.384918 
	C669.047302,319.556610 668.998291,315.723022 669.025146,311.891785 
M447.822815,408.213287 
	C447.573975,410.865570 447.276886,413.514343 447.083862,416.170685 
	C445.467010,438.419739 443.849030,460.668762 442.272644,482.920715 
	C441.143250,498.863007 439.959900,514.803040 439.035858,530.757690 
	C438.615265,538.019836 442.343964,541.945251 449.545868,542.558289 
	C451.201202,542.699158 452.875366,542.637573 454.540863,542.637634 
	C543.835388,542.640686 633.129944,542.640564 722.424500,542.637878 
	C724.090088,542.637817 725.761963,542.688354 727.420288,542.568726 
	C735.496521,541.985840 739.403809,538.013916 739.843018,529.854309 
	C740.209900,523.037109 740.477661,516.214417 740.759705,509.392853 
	C742.892395,457.811798 745.042908,406.231445 747.126770,354.648407 
	C747.602173,342.881500 744.750916,339.999573 733.157654,339.999359 
	C644.529480,339.997681 555.901306,339.998016 467.273102,340.001801 
	C465.607819,340.001862 463.928894,339.925201 462.279724,340.102173 
	C456.503693,340.721954 452.402191,344.715637 451.965210,350.488495 
	C450.532837,369.413177 449.228027,388.347565 447.822815,408.213287 
z"/>
<path fill="#7CA74F" opacity="1.000000" stroke="none" 
	d="
M527.532349,311.761505 
	C503.301941,311.840546 479.071350,311.997437 454.841278,311.939697 
	C449.311890,311.926544 445.131226,313.616394 442.187073,318.690796 
	C428.268066,297.421997 414.759155,276.211700 401.362885,254.930496 
	C395.339996,245.362640 389.542175,235.653122 383.642212,226.007874 
	C397.096069,219.799866 409.490295,223.377274 420.582001,231.317062 
	C435.302704,241.854630 445.613068,256.420776 453.992767,272.269867 
	C459.475006,282.638824 464.354706,293.326385 469.999420,304.885040 
	C469.999420,299.679382 469.932922,295.355743 470.010468,291.034668 
	C470.427399,267.809113 472.009918,244.736526 480.012390,222.633652 
	C483.661285,212.555283 488.655304,203.447067 497.081024,196.228409 
	C512.021729,183.428101 539.792053,187.808029 550.025879,204.747421 
	C556.264404,215.073807 559.846741,226.206604 560.855957,238.003677 
	C561.843262,249.544769 561.988525,261.188324 561.885437,272.781403 
	C561.818359,280.322693 560.645508,287.854187 559.470398,295.777466 
	C548.468018,295.397797 545.941589,297.681854 545.907104,307.971985 
	C545.902710,309.280029 545.882263,310.588043 545.869263,311.896057 
	C540.828613,311.908722 535.788025,311.921356 530.274658,311.459595 
	C526.635559,270.829193 523.469055,230.673248 520.302551,190.517273 
	C519.636047,190.572601 518.969543,190.627930 518.303040,190.683258 
	C521.379456,231.042664 524.455933,271.402100 527.532349,311.761505 
z"/>
<path fill="#7CA74F" opacity="1.000000" stroke="none" 
	d="
M755.081604,312.136810 
	C750.025879,312.073639 744.970215,312.010498 739.451416,311.894470 
	C746.255371,296.129822 760.536926,281.609009 776.335571,281.119690 
	C797.290466,280.470703 810.836121,291.239594 815.881836,311.581482 
	C819.214050,325.015259 818.191223,338.585083 816.224121,352.272003 
	C813.510132,371.154877 808.227417,389.256409 801.710693,407.672760 
	C801.353455,408.603699 801.302307,409.035736 801.251160,409.467773 
	C801.716675,409.215179 802.182190,408.962555 802.647644,408.709869 
	C809.927368,400.811981 816.800659,392.485352 824.578552,385.113007 
	C837.472717,372.891083 851.232788,361.689850 868.219727,355.379883 
	C882.306824,350.147095 895.814514,350.469604 908.485352,360.284119 
	C907.723206,361.691833 906.848938,362.705719 905.833374,363.549561 
	C882.189331,383.196350 858.546936,402.845184 834.867310,422.449097 
	C820.279480,434.526001 805.630493,446.529144 790.864990,458.139709 
	C789.168823,434.677917 787.546143,411.646301 786.086670,388.604370 
	C784.899536,369.864563 784.086365,351.099396 782.724121,332.373352 
	C782.298035,326.516968 780.624634,320.751343 779.656616,314.584076 
	C783.671631,304.594543 787.552185,294.965057 791.432739,285.335602 
	C790.857483,285.106934 790.282227,284.878265 789.706909,284.649597 
	C785.718079,294.214844 781.729187,303.780090 777.343506,313.242432 
	C769.658264,312.805328 762.369934,312.471069 755.081604,312.136810 
z"/>
<path fill="#7CA74F" opacity="1.000000" stroke="none" 
	d="
M911.075684,361.920166 
	C916.563110,367.585632 920.093018,374.258057 918.859985,382.226349 
	C917.441956,391.390045 913.275269,399.584717 907.576233,406.902588 
	C890.601562,428.699036 869.285583,445.629120 846.665344,461.095062 
	C838.720154,466.527313 830.854858,472.076477 822.695129,477.751617 
	C829.396423,477.082367 835.891785,476.117462 842.415039,475.861298 
	C850.784912,475.532654 859.188477,475.509491 867.555664,475.866486 
	C872.756104,476.088409 878.010803,476.865173 883.074341,478.085083 
	C893.125793,480.506714 901.748108,485.143860 905.849487,495.925476 
	C904.201477,496.851929 902.753479,497.226532 901.299805,497.577301 
	C865.869629,506.126923 830.438904,514.673950 794.934937,522.793945 
	C793.585449,501.968658 792.309326,481.570923 791.337769,461.015930 
	C792.955444,459.840302 794.299255,458.858856 795.577332,457.798187 
	C834.080750,425.843628 872.577698,393.881287 911.075684,361.920166 
z"/>
<path fill="#785FA0" opacity="1.000000" stroke="none" 
	d="
M791.033203,461.173187 
	C792.309326,481.570923 793.585449,501.968658 794.899414,523.122803 
	C794.972839,524.320374 795.008545,524.761536 795.019775,525.649170 
	C795.330017,532.240540 795.799011,538.381775 795.967834,544.531189 
	C796.219604,553.702698 793.061157,556.856506 783.875366,556.905640 
	C771.549438,556.971619 759.223450,557.006165 746.897461,557.054199 
	C746.471802,557.021973 746.046204,556.989685 745.312622,556.871826 
	C752.217163,554.074951 752.610291,547.666687 752.882629,541.522095 
	C753.456848,528.565247 753.568481,515.588623 754.056091,502.627106 
	C754.993103,477.716736 756.049744,452.810852 757.076111,427.903870 
	C757.712402,412.463898 758.316223,397.022156 759.057739,381.587128 
	C759.942444,363.171936 760.972107,344.763733 761.910278,326.351074 
	C762.199463,320.675507 761.960754,315.193848 755.336670,312.339783 
	C762.369934,312.471069 769.658264,312.805328 777.460938,313.461121 
	C778.490845,314.169830 779.006531,314.557007 779.522156,314.944153 
	C780.624634,320.751343 782.298035,326.516968 782.724121,332.373352 
	C784.086365,351.099396 784.899536,369.864563 786.086670,388.604370 
	C787.546143,411.646301 789.168823,434.677917 790.819824,458.455933 
	C790.956787,459.856323 790.994934,460.514740 791.033203,461.173187 
z"/>
<path fill="#7CA74F" opacity="1.000000" stroke="none" 
	d="
M441.882263,322.080078 
	C440.827362,337.948425 439.823120,353.820312 438.702271,369.684021 
	C437.721588,383.564117 436.609772,397.434998 435.056091,411.531006 
	C412.077850,397.911224 389.627472,384.024384 367.105713,370.254364 
	C359.198242,365.419617 351.115479,360.871552 343.112793,356.192535 
	C350.280396,346.184784 360.990570,344.270538 371.894806,345.273590 
	C390.739044,347.006897 408.356537,353.465454 425.687744,362.292847 
	C426.603668,362.646515 427.035645,362.697723 427.467651,362.748932 
	C427.215118,362.283478 426.962585,361.817993 426.710052,361.352539 
	C414.554840,344.489258 401.982025,327.907440 390.368347,310.679108 
	C379.912354,295.168121 371.734100,278.440948 367.403076,259.993927 
	C363.967621,245.361237 368.671753,232.624634 380.822266,227.214188 
	C393.891266,247.109711 406.339539,266.817596 418.874756,286.470001 
	C426.474335,298.384430 434.208527,310.212952 441.882263,322.080078 
z"/>
<path fill="#7CA74F" opacity="1.000000" stroke="none" 
	d="
M747.159058,557.401672 
	C759.223450,557.006165 771.549438,556.971619 783.875366,556.905640 
	C793.061157,556.856506 796.219604,553.702698 795.967834,544.531189 
	C795.799011,538.381775 795.330017,532.240540 795.426147,525.598328 
	C813.308167,520.929993 830.754028,516.736023 848.212158,512.594116 
	C867.768555,507.954437 887.336243,503.361816 906.898987,498.748718 
	C910.524475,510.129333 905.518738,526.982056 894.076050,534.974976 
	C880.239075,544.640259 864.588806,549.749756 848.095825,551.886475 
	C830.844971,554.121399 813.493286,555.858582 796.130676,556.866699 
	C779.931519,557.807251 763.660156,557.504517 747.159058,557.401672 
z"/>
<path fill="#7CA74F" opacity="1.000000" stroke="none" 
	d="
M435.040466,414.172607 
	C434.204926,425.618286 433.369385,437.063965 432.249603,448.814911 
	C416.973816,442.746185 401.727692,436.901154 387.064758,429.844269 
	C373.348083,423.242828 360.306732,415.181763 349.664581,404.044678 
	C341.912292,395.931824 335.973450,386.474487 337.203857,374.711670 
	C337.828003,368.744781 340.579559,363.000427 342.829041,357.288940 
	C355.611359,365.209106 367.867432,373.103607 380.272278,380.756958 
	C398.472534,391.985992 416.779144,403.042572 435.040466,414.172607 
z"/>
<path fill="#7CA74F" opacity="1.000000" stroke="none" 
	d="
M616.889648,311.858154 
	C599.629578,311.878571 582.369568,311.898987 564.665955,311.509094 
	C564.531006,309.394653 564.839661,307.690491 565.148315,305.986359 
	C570.103149,299.305878 574.825256,292.436462 580.062988,285.985657 
	C589.850464,273.931244 600.091736,262.412140 615.354797,256.805023 
	C624.066772,253.604553 632.015564,254.569443 639.789551,259.972961 
	C632.191650,277.695618 624.540649,294.776886 616.889648,311.858154 
z"/>
<path fill="#FFC952" opacity="1.000000" stroke="none" 
	d="
M705.333130,610.234375 
	C704.047668,612.351562 703.117676,614.238831 701.980225,615.991516 
	C699.408813,619.953552 697.382385,619.845520 694.963135,615.700989 
	C694.473816,614.862610 693.905457,614.033325 693.613770,613.122925 
	C691.968811,607.988220 688.653687,607.093018 683.740540,608.497986 
	C681.593567,609.111938 679.036682,608.292297 676.665955,608.123657 
	C676.894653,605.811401 676.344910,602.964600 677.497131,601.286438 
	C681.035156,596.133301 679.917603,592.976807 674.721313,589.966370 
	C672.950500,588.940491 672.234863,586.093384 671.037109,584.078369 
	C672.908142,583.046509 674.673340,581.674683 676.671875,581.052307 
	C681.057495,579.686768 685.027039,578.577454 684.180298,572.380249 
	C683.874756,570.143921 685.614014,567.628113 686.420166,565.239868 
	C688.849854,566.228394 691.593384,566.791016 693.640381,568.299072 
	C697.288147,570.986511 700.383972,571.779358 703.661560,567.926758 
	C704.469177,566.977539 705.719604,566.369019 706.836670,565.725830 
	C710.058044,563.870911 713.338013,565.223877 712.821411,568.764587 
	C711.599670,577.138855 715.230286,580.538696 723.054504,581.702942 
	C726.609985,582.231995 727.259277,585.062683 724.590088,587.933167 
	C723.912170,588.662170 723.245789,589.428833 722.457581,590.023804 
	C718.451111,593.047852 716.769836,596.311279 719.821533,601.259155 
	C720.894714,602.999207 721.160217,606.834656 720.049500,607.908508 
	C718.745972,609.168823 715.528381,608.352112 713.165955,608.640808 
	C710.627014,608.951233 708.117065,609.499146 705.333130,610.234375 
z"/>
<path fill="#FFC952" opacity="1.000000" stroke="none" 
	d="
M370.045624,515.031738 
	C374.430939,514.442322 375.137665,511.930756 375.126801,508.313843 
	C375.118561,505.568115 376.262695,502.819000 376.894012,500.071411 
	C379.505890,501.124359 382.508484,501.677094 384.641479,503.343140 
	C388.169495,506.098877 391.099762,506.315948 394.325592,503.215973 
	C395.006989,502.561127 395.892792,502.028900 396.780579,501.698608 
	C398.350586,501.114471 400.568390,499.864655 401.471619,500.464539 
	C402.796204,501.344299 403.800293,503.572815 403.898163,505.286194 
	C404.366547,513.486450 404.280334,513.384216 411.715698,516.016541 
	C413.640808,516.698120 416.588806,518.220276 416.663971,519.497742 
	C416.769012,521.282654 414.960968,523.588501 413.371277,524.991333 
	C407.751465,529.950500 407.805145,529.775696 410.767395,536.631714 
	C411.582733,538.518738 412.041565,541.452942 411.109283,542.915771 
	C410.380066,544.059937 407.171783,544.175476 405.196564,543.877075 
	C397.381378,542.696533 397.532654,542.642334 393.800110,549.412109 
	C392.945496,550.962158 390.903900,552.609924 389.285065,552.746277 
	C388.010223,552.853638 386.033051,550.979614 385.249695,549.514282 
	C380.761078,541.118103 381.548798,542.664062 373.353851,543.812256 
	C371.524536,544.068542 368.594543,544.021545 367.904877,542.973450 
	C367.015900,541.622498 367.652161,539.079102 368.042969,537.131775 
	C368.385071,535.427368 369.717773,533.866455 369.834839,532.187927 
	C369.947815,530.568359 369.405640,528.661133 368.521912,527.284302 
	C367.697144,525.999207 365.765778,525.454773 364.827576,524.204529 
	C363.635925,522.616516 361.906921,520.310181 362.347534,518.934082 
	C362.788574,517.556396 365.607269,516.924316 367.403564,516.004089 
	C368.119659,515.637207 368.888733,515.373779 370.045624,515.031738 
z"/>
<path fill="#FFC952" opacity="1.000000" stroke="none" 
	d="
M712.294250,275.704956 
	C712.701904,282.611786 707.214355,280.486755 704.999451,279.691498 
	C699.042847,277.552856 696.590027,280.079773 694.394531,284.934174 
	C693.503906,286.903564 691.371643,288.311401 689.804321,289.974762 
	C688.250366,288.470703 685.867981,287.229248 685.292847,285.414917 
	C683.322205,279.198822 679.743652,277.865479 673.794250,279.836426 
	C671.966736,280.441803 669.508545,279.143585 667.339172,278.717010 
	C667.774414,276.740479 667.874268,274.608795 668.703979,272.814697 
	C671.977600,265.736115 671.975586,265.885101 665.346741,260.618317 
	C663.850159,259.429230 662.253479,257.074310 662.443604,255.461197 
	C662.596924,254.160385 665.223083,252.633591 667.011841,252.130692 
	C675.771179,249.667984 675.746948,249.775391 676.053284,240.840057 
	C676.105286,239.323624 676.617249,236.706619 677.335388,236.552826 
	C679.031372,236.189621 681.053711,236.796997 682.797241,237.421692 
	C683.798035,237.780289 684.442871,239.032242 685.367859,239.720978 
	C688.324890,241.922638 691.245300,243.511856 694.151978,239.477829 
	C694.862061,238.492310 696.165466,237.768707 697.346619,237.328354 
	C698.976135,236.720825 701.124756,235.735001 702.345886,236.338318 
	C703.406372,236.862289 703.889282,239.359573 703.932861,241.003204 
	C704.167786,249.852936 704.123413,249.746017 712.589783,252.111572 
	C714.227966,252.569275 716.298950,254.008255 716.739380,255.435989 
	C717.103271,256.615601 715.695374,258.821838 714.483276,259.926880 
	C708.244690,265.614380 708.178345,265.541626 712.294250,275.704956 
z"/>
<path fill="#7CA74F" opacity="1.000000" stroke="none" 
	d="
M649.923096,311.933380 
	C639.896301,311.935211 629.869568,311.937073 619.453979,311.540710 
	C626.740601,294.417084 634.415955,277.691650 642.091309,260.966217 
	C648.934814,267.050690 651.950500,274.974304 652.982361,283.815552 
	C653.420044,287.565796 653.686890,291.335999 653.908691,295.847046 
	C648.753113,300.765808 650.224121,306.572754 649.923096,311.933380 
z"/>
<path fill="#FFC952" opacity="1.000000" stroke="none" 
	d="
M821.999756,235.810425 
	C822.419006,233.366699 822.837952,231.360779 823.256836,229.354858 
	C825.459167,230.022568 827.842651,230.359314 829.818604,231.440674 
	C832.364502,232.833954 834.232727,233.648117 836.714783,231.053589 
	C837.951904,229.760300 840.497864,229.718964 842.451782,229.111359 
	C842.967896,230.905319 844.124146,232.794220 843.874939,234.474686 
	C843.234070,238.795868 845.892273,239.637283 849.035828,240.559311 
	C855.098816,242.337662 855.268127,243.231506 850.709961,247.785736 
	C849.651001,248.843857 848.554077,249.863968 847.269348,251.098846 
	C847.865906,252.855103 848.601135,254.594498 849.027161,256.406586 
	C849.373474,257.879913 850.008484,259.997253 849.316650,260.816589 
	C848.511536,261.770111 846.056335,262.354767 844.916992,261.820496 
	C840.485168,259.742249 838.598633,261.464722 836.685120,265.476349 
	C834.245605,270.590576 831.694946,270.412109 829.101929,264.854126 
	C827.306458,261.005737 824.884338,260.468048 821.268372,261.262512 
	C819.828796,261.578766 818.245911,261.242615 816.728271,261.203522 
	C816.805115,259.543915 816.643066,257.826416 817.027100,256.241241 
	C817.397339,254.713058 818.331543,253.321472 819.427551,251.003723 
	C817.711426,249.569275 815.520874,248.208267 813.968140,246.322128 
	C812.006592,243.939346 811.055847,241.741272 815.782471,240.765320 
	C818.018982,240.303482 822.273987,240.871765 821.999756,235.810425 
z"/>
<path fill="#785FA0" opacity="1.000000" stroke="none" 
	d="
M649.945923,312.404572 
	C650.224121,306.572754 648.753113,300.765808 653.967651,296.291504 
	C656.692566,295.771545 659.445374,294.832062 661.735352,295.493927 
	C666.459534,296.859406 669.651855,299.943726 669.031128,305.558014 
	C668.833130,307.348846 669.003296,309.180328 669.015076,311.442505 
	C668.998291,315.723022 669.047302,319.556610 668.927429,323.384918 
	C668.728333,329.743378 664.825256,333.984619 659.334351,333.955505 
	C653.599915,333.925110 650.085327,329.956787 650.004700,323.370850 
	C649.961853,319.872864 649.978760,316.374146 649.945923,312.404572 
z"/>
<path fill="#785FA0" opacity="1.000000" stroke="none" 
	d="
M565.089355,305.584717 
	C564.839661,307.690491 564.531006,309.394653 564.211609,311.466827 
	C564.148499,316.322845 564.171753,320.813324 564.024353,325.298187 
	C563.849731,330.607056 560.403992,333.878204 555.116577,333.939148 
	C550.309570,333.994537 546.169250,330.163300 546.009460,325.314514 
	C545.872681,321.161621 545.948669,317.001678 545.899902,312.370453 
	C545.882263,310.588043 545.902710,309.280029 545.907104,307.971985 
	C545.941589,297.681854 548.468018,295.397797 559.404907,296.220795 
	C563.618103,298.050171 565.358765,301.013397 565.089355,305.584717 
z"/>
<path fill="#108045" opacity="1.000000" stroke="none" 
	d="
M791.337708,461.015930 
	C790.994934,460.514740 790.956787,459.856323 790.963806,458.881653 
	C805.630493,446.529144 820.279480,434.526001 834.867310,422.449097 
	C858.546936,402.845184 882.189331,383.196350 905.833374,363.549561 
	C906.848938,362.705719 907.723206,361.691833 908.790405,360.458160 
	C909.589417,360.532745 910.261292,360.906342 911.004395,361.600037 
	C872.577698,393.881287 834.080750,425.843628 795.577332,457.798187 
	C794.299255,458.858856 792.955444,459.840302 791.337708,461.015930 
z"/>
<path fill="#138145" opacity="1.000000" stroke="none" 
	d="
M906.954956,498.458344 
	C887.336243,503.361816 867.768555,507.954437 848.212158,512.594116 
	C830.754028,516.736023 813.308167,520.929993 795.450562,525.151855 
	C795.008545,524.761536 794.972839,524.320374 794.972717,523.550293 
	C830.438904,514.673950 865.869629,506.126923 901.299805,497.577301 
	C902.753479,497.226532 904.201477,496.851929 905.985718,496.269165 
	C906.549927,496.755920 906.780457,497.461945 906.954956,498.458344 
z"/>
<path fill="#108045" opacity="1.000000" stroke="none" 
	d="
M441.961700,321.726929 
	C434.208527,310.212952 426.474335,298.384430 418.874756,286.470001 
	C406.339539,266.817596 393.891266,247.109711 381.179138,227.164185 
	C381.692657,226.495605 382.433380,226.088043 383.408173,225.844177 
	C389.542175,235.653122 395.339996,245.362640 401.362885,254.930496 
	C414.759155,276.211700 428.268066,297.421997 441.958557,318.944489 
	C442.137756,319.943115 442.089447,320.658478 441.961700,321.726929 
z"/>
<path fill="#108045" opacity="1.000000" stroke="none" 
	d="
M435.144623,413.827972 
	C416.779144,403.042572 398.472534,391.985992 380.272278,380.756958 
	C367.867432,373.103607 355.611359,365.209106 343.147552,357.104065 
	C343.006348,356.785706 342.993073,356.475037 343.052917,356.333801 
	C351.115479,360.871552 359.198242,365.419617 367.105713,370.254364 
	C389.627472,384.024384 412.077850,397.911224 434.878662,411.901062 
	C435.216949,412.527832 435.232880,413.005585 435.144623,413.827972 
z"/>
<path fill="#138145" opacity="1.000000" stroke="none" 
	d="
M641.927429,260.721985 
	C634.415955,277.691650 626.740601,294.417084 618.981750,311.486328 
	C618.451843,311.877136 618.005432,311.924194 617.224304,311.914703 
	C624.540649,294.776886 632.191650,277.695618 639.978394,260.279846 
	C640.664001,260.122803 641.213806,260.300262 641.927429,260.721985 
z"/>
<path fill="#FEC953" opacity="1.000000" stroke="none" 
	d="
M447.848511,407.745728 
	C449.228027,388.347565 450.532837,369.413177 451.965210,350.488495 
	C452.402191,344.715637 456.503693,340.721954 462.279724,340.102173 
	C463.928894,339.925201 465.607819,340.001862 467.273102,340.001801 
	C555.901306,339.998016 644.529480,339.997681 733.157654,339.999359 
	C744.750916,339.999573 747.602173,342.881500 747.126770,354.648407 
	C745.042908,406.231445 742.892395,457.811798 740.759705,509.392853 
	C740.477661,516.214417 740.209900,523.037109 739.843018,529.854309 
	C739.403809,538.013916 735.496521,541.985840 727.420288,542.568726 
	C725.761963,542.688354 724.090088,542.637817 722.424500,542.637878 
	C633.129944,542.640564 543.835388,542.640686 454.540863,542.637634 
	C452.875366,542.637573 451.201202,542.699158 449.545868,542.558289 
	C442.343964,541.945251 438.615265,538.019836 439.035858,530.757690 
	C439.959900,514.803040 441.143250,498.863007 442.272644,482.920715 
	C443.849030,460.668762 445.467010,438.419739 447.083862,416.170685 
	C447.276886,413.514343 447.573975,410.865570 447.848511,407.745728 
M574.166565,493.631714 
	C576.557373,488.708984 579.697571,484.003082 581.196289,478.822266 
	C585.439575,464.153503 586.671387,449.046509 585.562622,433.820984 
	C584.689880,421.835663 583.091370,409.963379 577.452942,399.056488 
	C573.696228,391.789581 568.262146,387.367035 559.724121,386.272980 
	C538.626770,383.569458 522.475586,392.451263 515.049377,412.212311 
	C506.334747,435.401947 502.433075,459.460999 504.094543,484.244110 
	C505.728729,508.620087 519.108582,519.207397 543.192505,515.032593 
	C556.354370,512.750977 566.090027,504.861877 574.166565,493.631714 
M657.799377,354.729492 
	C657.585144,355.355499 657.214355,355.972900 657.179382,356.608765 
	C656.120911,375.877289 655.006165,395.143524 654.122742,414.420319 
	C653.877930,419.761993 656.690735,422.476532 662.650208,422.518188 
	C684.450623,422.670471 706.253296,422.679840 728.053650,422.527039 
	C734.648499,422.480835 737.424316,419.580994 737.731567,412.989197 
	C738.568176,395.040009 739.322144,377.086304 739.968567,359.129303 
	C740.208740,352.457977 737.771851,350.027771 731.136353,350.013214 
	C709.667603,349.966095 688.196350,349.846985 666.732422,350.173706 
	C663.853821,350.217529 661.011719,352.662598 657.799377,354.729492 
M591.983337,391.750336 
	C588.322144,396.629150 590.149902,401.635590 591.906616,406.467560 
	C593.223877,410.090576 596.139954,411.787415 599.875977,410.110779 
	C603.270325,408.587463 606.394714,406.462616 609.890808,404.458069 
	C609.836487,405.562225 609.918457,406.670929 609.710144,407.722076 
	C605.313293,429.910675 600.713989,452.060913 596.535339,474.290253 
	C594.571228,484.739105 593.356995,495.331360 591.913391,505.873779 
	C591.597656,508.179688 591.415833,510.912750 594.728210,511.259583 
	C601.956299,512.016479 609.198303,512.739380 616.453308,513.096680 
	C619.893311,513.266113 621.644775,511.222595 622.097900,507.525482 
	C624.870667,484.904236 628.244263,462.350098 630.648010,439.691956 
	C632.946411,418.025391 634.471191,396.270813 635.993347,374.530945 
	C636.534790,366.797760 634.122375,365.023224 627.299683,368.950012 
	C615.375549,375.812958 604.048767,383.713684 591.983337,391.750336 
M522.618530,345.817291 
	C520.645386,345.560150 518.659973,345.010742 516.700989,345.092621 
	C502.441956,345.688446 488.162262,346.081116 473.941162,347.199890 
	C462.812561,348.075409 461.564880,349.222412 459.597656,360.085938 
	C456.046600,379.696045 453.418854,399.440979 454.046204,419.457642 
	C454.102478,421.252228 454.353729,423.214691 455.159607,424.763458 
	C455.985016,426.349731 457.564758,428.549561 458.886230,428.600128 
	C460.324738,428.655090 462.256592,426.814362 463.230957,425.316986 
	C464.560303,423.274200 465.456207,420.843658 466.070709,418.458984 
	C469.261719,406.076080 472.487244,393.696655 475.328979,381.231262 
	C477.005981,373.874847 481.387878,369.279114 488.068024,366.418518 
	C499.371613,361.578125 510.671967,356.729858 521.946045,351.821411 
	C524.535828,350.693878 527.013611,349.308990 530.099060,347.764099 
	C528.726624,346.806152 528.358826,346.349396 527.935364,346.290100 
	C526.459717,346.083496 524.964783,346.014465 522.618530,345.817291 
M460.612976,442.150513 
	C457.332855,437.189850 452.978149,436.574524 449.992096,440.649750 
	C447.367126,444.232147 446.892059,453.332489 449.649597,456.763489 
	C451.068817,458.529327 453.597198,460.656921 455.431580,460.490875 
	C457.347473,460.317474 460.210907,457.814117 460.577209,455.925354 
	C461.394257,451.712860 460.913818,447.248749 460.612976,442.150513 
z"/>
<path fill="#138145" opacity="1.000000" stroke="none" 
	d="
M527.805969,311.836395 
	C524.455933,271.402100 521.379456,231.042664 518.303040,190.683258 
	C518.969543,190.627930 519.636047,190.572601 520.302551,190.517273 
	C523.469055,230.673248 526.635559,270.829193 529.798584,311.401764 
	C529.223328,311.849335 528.651428,311.880310 527.805969,311.836395 
z"/>
<path fill="#138145" opacity="1.000000" stroke="none" 
	d="
M779.656616,314.584076 
	C779.006531,314.557007 778.490845,314.169830 777.857788,313.564026 
	C781.729187,303.780090 785.718079,294.214844 789.706909,284.649597 
	C790.282227,284.878265 790.857483,285.106934 791.432739,285.335602 
	C787.552185,294.965057 783.671631,304.594543 779.656616,314.584076 
z"/>
<path fill="#000000" opacity="1.000000" stroke="none" 
	d="
M802.471497,408.508606 
	C802.182190,408.962555 801.716675,409.215179 801.251160,409.467773 
	C801.302307,409.035736 801.353455,408.603699 801.660400,408.050842 
	C802.042480,408.055817 802.168945,408.181580 802.471497,408.508606 
z"/>
<path fill="#000000" opacity="1.000000" stroke="none" 
	d="
M426.508728,361.528687 
	C426.962585,361.817993 427.215118,362.283478 427.467651,362.748932 
	C427.035645,362.697723 426.603668,362.646515 426.050903,362.339661 
	C426.055878,361.957611 426.181671,361.831207 426.508728,361.528687 
z"/>
<path fill="#FFFEFD" opacity="1.000000" stroke="none" 
	d="
M573.968872,493.931824 
	C566.090027,504.861877 556.354370,512.750977 543.192505,515.032593 
	C519.108582,519.207397 505.728729,508.620087 504.094543,484.244110 
	C502.433075,459.460999 506.334747,435.401947 515.049377,412.212311 
	C522.475586,392.451263 538.626770,383.569458 559.724121,386.272980 
	C568.262146,387.367035 573.696228,391.789581 577.452942,399.056488 
	C583.091370,409.963379 584.689880,421.835663 585.562622,433.820984 
	C586.671387,449.046509 585.439575,464.153503 581.196289,478.822266 
	C579.697571,484.003082 576.557373,488.708984 573.968872,493.931824 
M560.334961,412.179565 
	C551.969971,404.256561 543.449219,405.371887 536.303406,416.045807 
	C525.068359,432.827911 521.064392,451.708618 522.217529,471.622253 
	C522.788208,481.476624 529.561768,487.445068 537.975159,486.740021 
	C544.312439,486.208984 549.835999,483.858582 554.408997,479.261139 
	C561.130249,472.504028 564.741821,464.164154 566.431885,455.045654 
	C569.145935,440.401611 569.777039,425.894806 560.334961,412.179565 
z"/>
<path fill="#7B61A0" opacity="1.000000" stroke="none" 
	d="
M657.976074,354.362610 
	C661.011719,352.662598 663.853821,350.217529 666.732422,350.173706 
	C688.196350,349.846985 709.667603,349.966095 731.136353,350.013214 
	C737.771851,350.027771 740.208740,352.457977 739.968567,359.129303 
	C739.322144,377.086304 738.568176,395.040009 737.731567,412.989197 
	C737.424316,419.580994 734.648499,422.480835 728.053650,422.527039 
	C706.253296,422.679840 684.450623,422.670471 662.650208,422.518188 
	C656.690735,422.476532 653.877930,419.761993 654.122742,414.420319 
	C655.006165,395.143524 656.120911,375.877289 657.179382,356.608765 
	C657.214355,355.972900 657.585144,355.355499 657.976074,354.362610 
M691.489136,395.879852 
	C683.315674,383.349060 685.432007,371.136230 693.447754,358.906281 
	C680.608154,361.626617 670.021973,373.528076 669.045044,385.591675 
	C668.094177,397.332977 674.764893,408.121674 685.432495,412.095306 
	C695.142151,415.712128 708.582642,413.887787 712.797852,408.139740 
	C704.273499,406.913361 697.137207,403.361847 691.489136,395.879852 
M722.503845,386.787720 
	C724.293030,386.787720 726.082214,386.787720 729.360291,386.787720 
	C724.034363,380.281555 722.943115,373.933044 728.369690,367.379944 
	C724.096313,367.605896 713.004822,364.351227 708.727356,361.798737 
	C708.469543,363.598969 707.836487,365.233429 708.095398,366.711639 
	C709.030273,372.049591 706.535767,374.574158 701.669373,375.878174 
	C699.637085,376.422668 697.848083,377.875122 695.948547,378.914795 
	C695.764893,379.414886 695.581238,379.915009 695.397644,380.415100 
	C707.004028,379.217987 708.866577,386.369446 708.276550,395.749756 
	C713.410156,392.041229 714.455200,384.703003 722.503845,386.787720 
z"/>
<path fill="#FFFEFD" opacity="1.000000" stroke="none" 
	d="
M592.227539,391.464966 
	C604.048767,383.713684 615.375549,375.812958 627.299683,368.950012 
	C634.122375,365.023224 636.534790,366.797760 635.993347,374.530945 
	C634.471191,396.270813 632.946411,418.025391 630.648010,439.691956 
	C628.244263,462.350098 624.870667,484.904236 622.097900,507.525482 
	C621.644775,511.222595 619.893311,513.266113 616.453308,513.096680 
	C609.198303,512.739380 601.956299,512.016479 594.728210,511.259583 
	C591.415833,510.912750 591.597656,508.179688 591.913391,505.873779 
	C593.356995,495.331360 594.571228,484.739105 596.535339,474.290253 
	C600.713989,452.060913 605.313293,429.910675 609.710144,407.722076 
	C609.918457,406.670929 609.836487,405.562225 609.890808,404.458069 
	C606.394714,406.462616 603.270325,408.587463 599.875977,410.110779 
	C596.139954,411.787415 593.223877,410.090576 591.906616,406.467560 
	C590.149902,401.635590 588.322144,396.629150 592.227539,391.464966 
z"/>
<path fill="#FFDA8E" opacity="1.000000" stroke="none" 
	d="
M523.047852,345.855225 
	C524.964783,346.014465 526.459717,346.083496 527.935364,346.290100 
	C528.358826,346.349396 528.726624,346.806152 530.099060,347.764099 
	C527.013611,349.308990 524.535828,350.693878 521.946045,351.821411 
	C510.671967,356.729858 499.371613,361.578125 488.068024,366.418518 
	C481.387878,369.279114 477.005981,373.874847 475.328979,381.231262 
	C472.487244,393.696655 469.261719,406.076080 466.070709,418.458984 
	C465.456207,420.843658 464.560303,423.274200 463.230957,425.316986 
	C462.256592,426.814362 460.324738,428.655090 458.886230,428.600128 
	C457.564758,428.549561 455.985016,426.349731 455.159607,424.763458 
	C454.353729,423.214691 454.102478,421.252228 454.046204,419.457642 
	C453.418854,399.440979 456.046600,379.696045 459.597656,360.085938 
	C461.564880,349.222412 462.812561,348.075409 473.941162,347.199890 
	C488.162262,346.081116 502.441956,345.688446 516.700989,345.092621 
	C518.659973,345.010742 520.645386,345.560150 523.047852,345.855225 
z"/>
<path fill="#FFDA8E" opacity="1.000000" stroke="none" 
	d="
M460.787476,442.518829 
	C460.913818,447.248749 461.394257,451.712860 460.577209,455.925354 
	C460.210907,457.814117 457.347473,460.317474 455.431580,460.490875 
	C453.597198,460.656921 451.068817,458.529327 449.649597,456.763489 
	C446.892059,453.332489 447.367126,444.232147 449.992096,440.649750 
	C452.978149,436.574524 457.332855,437.189850 460.787476,442.518829 
z"/>
<path fill="#FFC953" opacity="1.000000" stroke="none" 
	d="
M560.563477,412.462952 
	C569.777039,425.894806 569.145935,440.401611 566.431885,455.045654 
	C564.741821,464.164154 561.130249,472.504028 554.408997,479.261139 
	C549.835999,483.858582 544.312439,486.208984 537.975159,486.740021 
	C529.561768,487.445068 522.788208,481.476624 522.217529,471.622253 
	C521.064392,451.708618 525.068359,432.827911 536.303406,416.045807 
	C543.449219,405.371887 551.969971,404.256561 560.563477,412.462952 
z"/>
<path fill="#FCFCFD" opacity="1.000000" stroke="none" 
	d="
M691.719543,396.162689 
	C697.137207,403.361847 704.273499,406.913361 712.797852,408.139740 
	C708.582642,413.887787 695.142151,415.712128 685.432495,412.095306 
	C674.764893,408.121674 668.094177,397.332977 669.045044,385.591675 
	C670.021973,373.528076 680.608154,361.626617 693.447754,358.906281 
	C685.432007,371.136230 683.315674,383.349060 691.719543,396.162689 
z"/>
<path fill="#FCFCFD" opacity="1.000000" stroke="none" 
	d="
M722.052979,386.742065 
	C714.455200,384.703003 713.410156,392.041229 708.276550,395.749756 
	C708.866577,386.369446 707.004028,379.217987 695.397644,380.415100 
	C695.581238,379.915009 695.764893,379.414886 695.948547,378.914795 
	C697.848083,377.875122 699.637085,376.422668 701.669373,375.878174 
	C706.535767,374.574158 709.030273,372.049591 708.095398,366.711639 
	C707.836487,365.233429 708.469543,363.598969 708.727356,361.798737 
	C713.004822,364.351227 724.096313,367.605896 728.369690,367.379944 
	C722.943115,373.933044 724.034363,380.281555 729.360291,386.787720 
	C726.082214,386.787720 724.293030,386.787720 722.052979,386.742065 
z"/>
</svg>