<svg xmlns="http://www.w3.org/2000/svg" xmlns:xlink="http://www.w3.org/1999/xlink" width="1080" zoomAndPan="magnify" viewBox="0 0 810 809.999993" height="1080" preserveAspectRatio="xMidYMid meet" version="1.0"><defs><clipPath id="114e6d42e0"><path d="M 459 618 L 530 618 L 530 687.675781 L 459 687.675781 Z M 459 618 " clip-rule="nonzero"/></clipPath></defs><path fill="#7ca74f" d="M 470.394531 601.839844 C 470.394531 601.839844 742.144531 634.402344 763.464844 556.753906 C 784.785156 479.101562 650.730469 506.664062 650.730469 506.664062 C 650.730469 506.664062 824.832031 402.726562 768.464844 353.882812 C 712.097656 305.039062 624.425781 422.746094 624.425781 422.746094 C 624.425781 422.746094 688.351562 268.722656 609.433594 251.210938 C 530.515625 233.703125 515.496094 409.007812 515.496094 409.007812 C 515.496094 409.007812 494.175781 272.496094 435.332031 292.597656 C 376.488281 312.699219 387.722656 509.171875 470.394531 601.839844 Z M 470.394531 601.839844 " fill-opacity="1" fill-rule="nonzero"/><path fill="#007a43" d="M 470.394531 602.988281 C 470.152344 602.992188 469.929688 602.921875 469.730469 602.78125 C 469.53125 602.644531 469.390625 602.460938 469.308594 602.234375 C 469.226562 602.003906 469.214844 601.773438 469.28125 601.539062 C 469.34375 601.304688 469.46875 601.109375 469.65625 600.957031 L 767.777344 353 C 767.894531 352.898438 768.027344 352.828125 768.175781 352.78125 C 768.324219 352.734375 768.472656 352.71875 768.628906 352.734375 C 768.78125 352.746094 768.925781 352.789062 769.0625 352.859375 C 769.199219 352.933594 769.316406 353.027344 769.417969 353.144531 C 769.519531 353.265625 769.59375 353.398438 769.640625 353.542969 C 769.6875 353.691406 769.703125 353.84375 769.691406 353.996094 C 769.675781 354.152344 769.632812 354.296875 769.558594 354.433594 C 769.488281 354.570312 769.390625 354.6875 769.269531 354.785156 L 474.9375 599.5625 L 762.773438 529.765625 C 762.925781 529.722656 763.078125 529.714844 763.230469 529.734375 C 763.382812 529.753906 763.527344 529.804688 763.660156 529.882812 C 763.792969 529.960938 763.90625 530.0625 764 530.1875 C 764.089844 530.3125 764.15625 530.449219 764.191406 530.601562 C 764.230469 530.75 764.234375 530.902344 764.210938 531.054688 C 764.183594 531.210938 764.132812 531.351562 764.046875 531.484375 C 763.964844 531.613281 763.863281 531.722656 763.734375 531.8125 C 763.605469 531.902344 763.46875 531.960938 763.316406 531.992188 C 459.898438 605.5625 470.625 602.988281 470.394531 602.988281 Z M 470.394531 602.988281 " fill-opacity="1" fill-rule="nonzero"/><path fill="#007a43" d="M 469.261719 601.972656 L 434.183594 292.644531 C 434.167969 292.339844 434.257812 292.070312 434.453125 291.839844 C 434.652344 291.605469 434.902344 291.472656 435.207031 291.441406 C 435.507812 291.410156 435.78125 291.484375 436.027344 291.667969 C 436.269531 291.855469 436.414062 292.097656 436.460938 292.398438 L 471.035156 597.265625 L 612.582031 254.097656 C 612.640625 253.957031 612.722656 253.832031 612.832031 253.722656 C 612.941406 253.613281 613.066406 253.53125 613.207031 253.472656 C 613.347656 253.414062 613.496094 253.382812 613.648438 253.386719 C 613.804688 253.386719 613.949219 253.414062 614.09375 253.476562 C 614.234375 253.53125 614.359375 253.613281 614.464844 253.71875 C 614.574219 253.828125 614.660156 253.949219 614.71875 254.089844 C 614.777344 254.230469 614.804688 254.375 614.804688 254.527344 C 614.804688 254.679688 614.773438 254.828125 614.714844 254.96875 L 471.542969 602.265625 C 471.523438 602.417969 471.472656 602.558594 471.398438 602.691406 C 471.320312 602.824219 471.222656 602.933594 471.101562 603.027344 C 470.984375 603.121094 470.847656 603.1875 470.703125 603.226562 C 470.554688 603.265625 470.40625 603.273438 470.253906 603.253906 C 470.105469 603.234375 469.964844 603.1875 469.832031 603.113281 C 469.699219 603.035156 469.585938 602.9375 469.492188 602.820312 C 469.402344 602.699219 469.335938 602.566406 469.292969 602.417969 C 469.253906 602.273438 469.242188 602.121094 469.261719 601.972656 Z M 469.261719 601.972656 " fill-opacity="1" fill-rule="nonzero"/><path fill="#7ca74f" d="M 290.484375 506.269531 C 290.484375 506.269531 21.886719 453.34375 25.609375 372.921875 C 29.332031 292.496094 148.3125 360.066406 148.3125 360.066406 C 148.3125 360.066406 14.800781 207.46875 83.5 178.414062 C 152.199219 149.359375 199.300781 288.382812 199.300781 288.382812 C 199.300781 288.382812 186.179688 122.160156 266.542969 129.832031 C 346.902344 137.507812 307.164062 308.910156 307.164062 308.910156 C 307.164062 308.910156 369.566406 185.660156 419.375 222.878906 C 469.179688 260.097656 397.742188 443.636719 290.484375 506.269531 Z M 290.484375 506.269531 " fill-opacity="1" fill-rule="nonzero"/><path fill="#007a43" d="M 290.484375 507.417969 C 289.976562 507.417969 301.816406 514.582031 33.445312 349.425781 C 33.316406 349.34375 33.207031 349.242188 33.117188 349.121094 C 33.027344 348.996094 32.960938 348.863281 32.925781 348.714844 C 32.890625 348.566406 32.882812 348.414062 32.90625 348.265625 C 32.929688 348.113281 32.980469 347.972656 33.0625 347.84375 C 33.140625 347.710938 33.242188 347.601562 33.367188 347.511719 C 33.488281 347.421875 33.625 347.359375 33.773438 347.320312 C 33.921875 347.285156 34.070312 347.28125 34.222656 347.304688 C 34.375 347.328125 34.515625 347.378906 34.644531 347.457031 L 286.859375 502.695312 L 82.53125 179.070312 C 82.441406 178.941406 82.378906 178.800781 82.347656 178.648438 C 82.3125 178.492188 82.3125 178.339844 82.34375 178.183594 C 82.371094 178.03125 82.433594 177.886719 82.519531 177.757812 C 82.609375 177.628906 82.71875 177.523438 82.851562 177.4375 C 82.984375 177.351562 83.128906 177.296875 83.285156 177.273438 C 83.441406 177.246094 83.59375 177.253906 83.746094 177.292969 C 83.898438 177.332031 84.039062 177.398438 84.164062 177.492188 C 84.289062 177.585938 84.390625 177.703125 84.46875 177.839844 L 291.453125 505.761719 C 291.539062 505.933594 291.578125 506.117188 291.570312 506.308594 C 291.566406 506.503906 291.511719 506.683594 291.414062 506.847656 C 291.320312 507.015625 291.1875 507.148438 291.023438 507.25 C 290.859375 507.351562 290.679688 507.40625 290.484375 507.417969 Z M 290.484375 507.417969 " fill-opacity="1" fill-rule="nonzero"/><path fill="#007a43" d="M 289.335938 506.351562 L 260.40625 131.832031 C 260.394531 131.679688 260.414062 131.53125 260.460938 131.382812 C 260.511719 131.238281 260.585938 131.105469 260.683594 130.992188 C 260.785156 130.875 260.902344 130.78125 261.039062 130.710938 C 261.175781 130.640625 261.320312 130.601562 261.472656 130.585938 C 261.625 130.574219 261.773438 130.59375 261.917969 130.640625 C 262.066406 130.691406 262.195312 130.765625 262.308594 130.863281 C 262.425781 130.964844 262.519531 131.082031 262.585938 131.21875 C 262.652344 131.355469 262.691406 131.5 262.703125 131.652344 L 291.289062 501.726562 L 418.324219 222.40625 C 418.46875 222.140625 418.683594 221.960938 418.96875 221.867188 C 419.253906 221.773438 419.535156 221.789062 419.808594 221.914062 C 420.082031 222.039062 420.273438 222.238281 420.390625 222.515625 C 420.503906 222.792969 420.511719 223.074219 420.40625 223.355469 L 291.519531 506.746094 C 291.40625 506.976562 291.238281 507.15625 291.007812 507.273438 C 290.777344 507.390625 290.53125 507.429688 290.277344 507.382812 C 290.023438 507.335938 289.808594 507.21875 289.632812 507.027344 C 289.457031 506.832031 289.359375 506.609375 289.335938 506.351562 Z M 289.335938 506.351562 " fill-opacity="1" fill-rule="nonzero"/><path fill="#785fa0" d="M 609.121094 607.777344 L 216.421875 607.777344 C 215.578125 607.757812 214.746094 607.660156 213.921875 607.480469 C 213.097656 607.296875 212.296875 607.035156 211.523438 606.699219 C 210.75 606.359375 210.019531 605.949219 209.328125 605.464844 C 208.636719 604.980469 207.996094 604.433594 207.414062 603.824219 C 206.828125 603.214844 206.308594 602.554688 205.855469 601.84375 C 205.402344 601.132812 205.023438 600.382812 204.714844 599.597656 C 204.410156 598.8125 204.183594 598.003906 204.035156 597.171875 C 203.890625 596.339844 203.824219 595.503906 203.84375 594.660156 L 203.84375 301.5 C 203.847656 300.714844 203.925781 299.9375 204.078125 299.171875 C 204.234375 298.402344 204.464844 297.65625 204.765625 296.933594 C 205.066406 296.210938 205.4375 295.523438 205.875 294.875 C 206.3125 294.222656 206.808594 293.621094 207.363281 293.070312 C 207.921875 292.515625 208.523438 292.023438 209.175781 291.589844 C 209.832031 291.15625 210.519531 290.789062 211.246094 290.492188 C 211.96875 290.195312 212.71875 289.96875 213.484375 289.820312 C 214.253906 289.667969 215.03125 289.59375 215.816406 289.59375 L 589.738281 289.59375 C 590.539062 289.601562 591.328125 289.683594 592.113281 289.839844 C 592.898438 289.996094 593.660156 290.222656 594.402344 290.519531 C 595.148438 290.816406 595.855469 291.179688 596.53125 291.609375 C 597.203125 292.039062 597.835938 292.523438 598.417969 293.070312 C 599 293.617188 599.53125 294.214844 600.003906 294.859375 C 600.476562 295.503906 600.886719 296.183594 601.230469 296.90625 C 601.578125 297.625 601.855469 298.371094 602.0625 299.144531 C 602.269531 299.917969 602.402344 300.703125 602.464844 301.5 L 620.882812 594.707031 C 620.960938 595.53125 620.957031 596.351562 620.863281 597.175781 C 620.773438 597.996094 620.597656 598.800781 620.339844 599.585938 C 620.082031 600.371094 619.742188 601.121094 619.328125 601.835938 C 618.914062 602.550781 618.429688 603.214844 617.878906 603.828125 C 617.324219 604.445312 616.714844 604.996094 616.046875 605.480469 C 615.378906 605.96875 614.667969 606.382812 613.914062 606.722656 C 613.160156 607.0625 612.382812 607.320312 611.574219 607.5 C 610.765625 607.675781 609.949219 607.769531 609.121094 607.777344 Z M 609.121094 607.777344 " fill-opacity="1" fill-rule="nonzero"/><path fill="#9b78c3" d="M 550.871094 607.777344 L 151.855469 607.777344 C 151.445312 607.785156 151.039062 607.769531 150.628906 607.734375 C 150.222656 607.695312 149.816406 607.640625 149.414062 607.5625 C 149.015625 607.480469 148.617188 607.382812 148.226562 607.261719 C 147.835938 607.140625 147.449219 607.003906 147.074219 606.839844 C 146.695312 606.679688 146.328125 606.5 145.972656 606.300781 C 145.613281 606.101562 145.269531 605.886719 144.933594 605.652344 C 144.597656 605.414062 144.277344 605.164062 143.96875 604.894531 C 143.660156 604.625 143.367188 604.339844 143.089844 604.039062 C 142.808594 603.738281 142.546875 603.425781 142.300781 603.097656 C 142.054688 602.769531 141.828125 602.429688 141.617188 602.082031 C 141.410156 601.730469 141.21875 601.367188 141.046875 600.996094 C 140.875 600.625 140.722656 600.246094 140.589844 599.855469 C 140.457031 599.46875 140.347656 599.078125 140.257812 598.675781 C 140.164062 598.277344 140.097656 597.875 140.046875 597.46875 C 140 597.0625 139.972656 596.65625 139.96875 596.246094 C 139.960938 595.835938 139.976562 595.429688 140.015625 595.019531 L 161.335938 301.792969 C 161.414062 300.96875 161.570312 300.160156 161.796875 299.363281 C 162.027344 298.566406 162.328125 297.796875 162.695312 297.054688 C 163.066406 296.316406 163.503906 295.613281 164.003906 294.953125 C 164.503906 294.292969 165.058594 293.683594 165.671875 293.125 C 166.28125 292.566406 166.941406 292.066406 167.644531 291.628906 C 168.347656 291.191406 169.085938 290.824219 169.859375 290.519531 C 170.628906 290.21875 171.421875 289.992188 172.238281 289.835938 C 173.050781 289.679688 173.871094 289.601562 174.699219 289.59375 L 564.335938 289.59375 C 565.136719 289.578125 565.929688 289.640625 566.71875 289.789062 C 567.503906 289.933594 568.269531 290.15625 569.011719 290.457031 C 569.753906 290.757812 570.457031 291.132812 571.125 291.578125 C 571.789062 292.023438 572.402344 292.535156 572.964844 293.105469 C 573.527344 293.675781 574.023438 294.296875 574.457031 294.972656 C 574.894531 295.644531 575.253906 296.355469 575.542969 297.101562 C 575.832031 297.847656 576.042969 298.617188 576.171875 299.410156 C 576.304688 300.199219 576.355469 300.992188 576.324219 301.792969 L 564.171875 595.019531 C 564.128906 595.867188 564.007812 596.703125 563.804688 597.527344 C 563.605469 598.351562 563.328125 599.152344 562.976562 599.921875 C 562.621094 600.695312 562.199219 601.425781 561.710938 602.121094 C 561.21875 602.8125 560.667969 603.453125 560.054688 604.039062 C 559.441406 604.625 558.777344 605.152344 558.066406 605.613281 C 557.355469 606.074219 556.605469 606.464844 555.820312 606.785156 C 555.03125 607.105469 554.222656 607.347656 553.390625 607.515625 C 552.558594 607.683594 551.71875 607.769531 550.871094 607.777344 Z M 550.871094 607.777344 " fill-opacity="1" fill-rule="nonzero"/><path fill="#785fa0" d="M 307.035156 268.527344 L 308.96875 268.527344 C 309.703125 268.527344 310.429688 268.597656 311.148438 268.742188 C 311.867188 268.882812 312.566406 269.097656 313.242188 269.375 C 313.921875 269.65625 314.5625 270 315.171875 270.410156 C 315.78125 270.816406 316.347656 271.277344 316.867188 271.796875 C 317.382812 272.316406 317.847656 272.878906 318.253906 273.488281 C 318.660156 274.097656 319.007812 274.742188 319.285156 275.417969 C 319.566406 276.097656 319.777344 276.796875 319.921875 277.515625 C 320.066406 278.234375 320.136719 278.960938 320.136719 279.691406 L 320.136719 306.746094 C 320.136719 307.480469 320.066406 308.203125 319.921875 308.925781 C 319.777344 309.644531 319.566406 310.339844 319.285156 311.019531 C 319.007812 311.695312 318.660156 312.339844 318.253906 312.949219 C 317.847656 313.558594 317.382812 314.121094 316.867188 314.640625 C 316.347656 315.160156 315.78125 315.621094 315.171875 316.03125 C 314.5625 316.4375 313.917969 316.78125 313.242188 317.0625 C 312.566406 317.34375 311.867188 317.554688 311.148438 317.695312 C 310.429688 317.839844 309.703125 317.910156 308.96875 317.910156 L 307.035156 317.910156 C 306.300781 317.910156 305.574219 317.839844 304.855469 317.695312 C 304.136719 317.554688 303.4375 317.34375 302.757812 317.0625 C 302.082031 316.78125 301.4375 316.4375 300.828125 316.03125 C 300.21875 315.621094 299.65625 315.160156 299.136719 314.640625 C 298.617188 314.121094 298.15625 313.558594 297.746094 312.949219 C 297.339844 312.339844 296.996094 311.695312 296.714844 311.019531 C 296.433594 310.339844 296.222656 309.644531 296.078125 308.925781 C 295.9375 308.203125 295.863281 307.480469 295.863281 306.746094 L 295.863281 279.691406 C 295.863281 278.960938 295.9375 278.234375 296.078125 277.515625 C 296.222656 276.796875 296.433594 276.097656 296.714844 275.417969 C 296.996094 274.742188 297.339844 274.097656 297.746094 273.488281 C 298.15625 272.878906 298.617188 272.316406 299.136719 271.796875 C 299.65625 271.277344 300.21875 270.816406 300.828125 270.410156 C 301.4375 270 302.082031 269.65625 302.757812 269.375 C 303.4375 269.097656 304.136719 268.882812 304.855469 268.742188 C 305.574219 268.597656 306.300781 268.527344 307.035156 268.527344 Z M 307.035156 268.527344 " fill-opacity="1" fill-rule="nonzero"/><path fill="#785fa0" d="M 442.25 268.527344 L 444.1875 268.527344 C 444.921875 268.527344 445.648438 268.597656 446.367188 268.742188 C 447.085938 268.882812 447.785156 269.097656 448.460938 269.375 C 449.136719 269.65625 449.78125 270 450.390625 270.410156 C 451 270.816406 451.566406 271.277344 452.085938 271.796875 C 452.601562 272.316406 453.066406 272.878906 453.472656 273.488281 C 453.878906 274.097656 454.226562 274.742188 454.503906 275.417969 C 454.785156 276.097656 454.996094 276.796875 455.140625 277.515625 C 455.285156 278.234375 455.355469 278.960938 455.355469 279.691406 L 455.355469 306.746094 C 455.355469 307.480469 455.285156 308.203125 455.140625 308.925781 C 454.996094 309.644531 454.785156 310.339844 454.503906 311.019531 C 454.226562 311.695312 453.878906 312.339844 453.472656 312.949219 C 453.066406 313.558594 452.601562 314.121094 452.085938 314.640625 C 451.566406 315.160156 451 315.621094 450.390625 316.03125 C 449.78125 316.4375 449.136719 316.78125 448.460938 317.0625 C 447.785156 317.34375 447.085938 317.554688 446.367188 317.695312 C 445.648438 317.839844 444.921875 317.910156 444.1875 317.910156 L 442.25 317.910156 C 441.519531 317.910156 440.792969 317.839844 440.074219 317.695312 C 439.355469 317.554688 438.65625 317.34375 437.976562 317.0625 C 437.300781 316.78125 436.65625 316.4375 436.046875 316.03125 C 435.4375 315.621094 434.875 315.160156 434.355469 314.640625 C 433.835938 314.121094 433.371094 313.558594 432.964844 312.949219 C 432.558594 312.339844 432.214844 311.695312 431.933594 311.019531 C 431.652344 310.339844 431.441406 309.644531 431.296875 308.925781 C 431.15625 308.203125 431.082031 307.480469 431.082031 306.746094 L 431.082031 279.691406 C 431.082031 278.960938 431.15625 278.234375 431.296875 277.515625 C 431.441406 276.796875 431.652344 276.097656 431.933594 275.417969 C 432.214844 274.742188 432.558594 274.097656 432.964844 273.488281 C 433.371094 272.878906 433.835938 272.316406 434.355469 271.796875 C 434.875 271.277344 435.4375 270.816406 436.046875 270.410156 C 436.65625 270 437.300781 269.65625 437.976562 269.375 C 438.65625 269.097656 439.355469 268.882812 440.074219 268.742188 C 440.792969 268.597656 441.519531 268.527344 442.25 268.527344 Z M 442.25 268.527344 " fill-opacity="1" fill-rule="nonzero"/><path fill="#ffc952" d="M 532.910156 589.167969 L 170.257812 589.167969 C 169.804688 589.175781 169.355469 589.160156 168.902344 589.121094 C 168.453125 589.082031 168.007812 589.019531 167.5625 588.933594 C 167.117188 588.847656 166.679688 588.738281 166.25 588.605469 C 165.816406 588.472656 165.390625 588.320312 164.976562 588.140625 C 164.558594 587.964844 164.15625 587.769531 163.757812 587.550781 C 163.363281 587.332031 162.980469 587.089844 162.609375 586.832031 C 162.242188 586.574219 161.882812 586.296875 161.542969 586 C 161.203125 585.703125 160.878906 585.390625 160.570312 585.058594 C 160.261719 584.730469 159.96875 584.382812 159.699219 584.023438 C 159.425781 583.664062 159.171875 583.289062 158.941406 582.902344 C 158.707031 582.515625 158.496094 582.117188 158.304688 581.707031 C 158.113281 581.296875 157.945312 580.878906 157.796875 580.453125 C 157.648438 580.023438 157.523438 579.589844 157.421875 579.152344 C 157.320312 578.710938 157.242188 578.265625 157.1875 577.820312 C 157.128906 577.371094 157.097656 576.921875 157.089844 576.46875 C 157.082031 576.015625 157.097656 575.566406 157.136719 575.117188 L 173.964844 339.539062 C 174.046875 338.625 174.21875 337.726562 174.46875 336.84375 C 174.71875 335.960938 175.046875 335.109375 175.457031 334.289062 C 175.863281 333.46875 176.34375 332.691406 176.894531 331.957031 C 177.445312 331.222656 178.058594 330.546875 178.734375 329.925781 C 179.410156 329.304688 180.140625 328.753906 180.917969 328.265625 C 181.695312 327.78125 182.511719 327.367188 183.363281 327.03125 C 184.21875 326.695312 185.09375 326.441406 185.996094 326.265625 C 186.898438 326.09375 187.804688 326 188.722656 325.996094 L 544.40625 325.996094 C 545.296875 325.976562 546.175781 326.050781 547.046875 326.210938 C 547.921875 326.375 548.769531 326.625 549.589844 326.960938 C 550.410156 327.296875 551.191406 327.710938 551.925781 328.207031 C 552.664062 328.703125 553.339844 329.269531 553.960938 329.902344 C 554.582031 330.535156 555.132812 331.226562 555.613281 331.972656 C 556.089844 332.722656 556.488281 333.507812 556.808594 334.335938 C 557.125 335.167969 557.355469 336.019531 557.5 336.894531 C 557.644531 337.769531 557.695312 338.652344 557.660156 339.539062 L 547.605469 575.117188 C 547.554688 576.050781 547.417969 576.972656 547.195312 577.878906 C 546.972656 578.789062 546.664062 579.667969 546.273438 580.519531 C 545.882812 581.371094 545.417969 582.175781 544.875 582.9375 C 544.328125 583.699219 543.71875 584.40625 543.042969 585.050781 C 542.367188 585.699219 541.636719 586.277344 540.851562 586.785156 C 540.0625 587.292969 539.238281 587.722656 538.371094 588.078125 C 537.503906 588.429688 536.609375 588.695312 535.691406 588.878906 C 534.773438 589.0625 533.847656 589.160156 532.910156 589.167969 Z M 532.910156 589.167969 " fill-opacity="1" fill-rule="nonzero"/><path fill="#785fa0" d="M 534.519531 433.207031 L 445.792969 433.207031 C 445.164062 433.21875 444.535156 433.164062 443.917969 433.046875 C 443.296875 432.929688 442.695312 432.75 442.109375 432.507812 C 441.527344 432.265625 440.976562 431.964844 440.453125 431.609375 C 439.933594 431.25 439.453125 430.84375 439.015625 430.390625 C 438.578125 429.933594 438.191406 429.4375 437.855469 428.902344 C 437.523438 428.367188 437.246094 427.804688 437.027344 427.210938 C 436.808594 426.617188 436.652344 426.007812 436.5625 425.382812 C 436.46875 424.757812 436.441406 424.132812 436.480469 423.5 L 440.382812 348.390625 C 440.429688 347.746094 440.535156 347.113281 440.699219 346.488281 C 440.863281 345.863281 441.085938 345.257812 441.367188 344.675781 C 441.644531 344.09375 441.976562 343.539062 442.355469 343.019531 C 442.738281 342.5 443.167969 342.019531 443.640625 341.578125 C 444.113281 341.136719 444.621094 340.742188 445.167969 340.398438 C 445.714844 340.050781 446.289062 339.761719 446.890625 339.523438 C 447.492188 339.285156 448.109375 339.105469 448.742188 338.984375 C 449.378906 338.863281 450.019531 338.800781 450.664062 338.800781 L 538.78125 338.800781 C 539.410156 338.789062 540.03125 338.839844 540.648438 338.957031 C 541.265625 339.070312 541.863281 339.25 542.445312 339.488281 C 543.027344 339.726562 543.578125 340.019531 544.097656 340.371094 C 544.617188 340.722656 545.097656 341.121094 545.535156 341.574219 C 545.972656 342.023438 546.359375 342.511719 546.699219 343.039062 C 547.035156 343.570312 547.316406 344.125 547.539062 344.714844 C 547.761719 345.300781 547.925781 345.902344 548.023438 346.523438 C 548.125 347.140625 548.160156 347.765625 548.128906 348.390625 L 544.851562 423.535156 C 544.808594 424.183594 544.710938 424.824219 544.546875 425.457031 C 544.386719 426.089844 544.164062 426.699219 543.886719 427.289062 C 543.609375 427.878906 543.277344 428.4375 542.894531 428.964844 C 542.511719 429.492188 542.082031 429.976562 541.605469 430.421875 C 541.128906 430.867188 540.617188 431.265625 540.066406 431.613281 C 539.515625 431.960938 538.9375 432.253906 538.328125 432.492188 C 537.722656 432.730469 537.097656 432.910156 536.457031 433.03125 C 535.816406 433.152344 535.171875 433.210938 534.519531 433.207031 Z M 534.519531 433.207031 " fill-opacity="1" fill-rule="nonzero"/><path fill="#ffffff" d="M 319.90625 387.070312 C 319.90625 387.070312 277.449219 379.199219 261.277344 408.089844 C 245.105469 436.980469 226.296875 535.011719 260.800781 550.144531 C 295.308594 565.277344 331.632812 540.78125 342.375 505.5625 C 353.117188 470.34375 350.183594 394.957031 319.90625 387.070312 Z M 300.816406 512.023438 C 293.667969 516.222656 282.777344 518.8125 275.054688 514.464844 C 259.585938 505.777344 265.769531 474.296875 267.722656 464.425781 C 272.476562 440.191406 288.109375 403.269531 309.609375 415.15625 C 332.289062 427.714844 330.5 494.578125 300.816406 512.023438 Z M 300.816406 512.023438 " fill-opacity="1" fill-rule="nonzero"/><path fill="#ffffff" d="M 380.585938 406.15625 C 380.585938 406.15625 351.183594 544.191406 356.429688 547.4375 C 361.679688 550.683594 391.902344 554.472656 394.460938 547.4375 C 397.019531 540.40625 417.421875 370.230469 412.503906 362.851562 C 407.582031 355.476562 376.683594 378.199219 364.761719 386.085938 C 352.839844 393.972656 351.640625 396.628906 354.609375 409.335938 C 357.578125 422.042969 369.597656 419.925781 380.585938 406.15625 Z M 380.585938 406.15625 " fill-opacity="1" fill-rule="nonzero"/><path fill="#ffffff" d="M 487.53125 351.671875 C 487.714844 351.472656 487.8125 351.238281 487.832031 350.96875 C 487.851562 350.699219 487.785156 350.453125 487.632812 350.230469 C 487.480469 350.007812 487.273438 349.859375 487.015625 349.777344 C 486.757812 349.695312 486.503906 349.707031 486.253906 349.800781 C 469.6875 355.34375 457.765625 369.019531 456.027344 384.234375 C 455.914062 385.28125 454.191406 403.023438 467.769531 414.285156 C 479.25 423.878906 497.160156 424.847656 512.59375 416.5 C 512.828125 416.378906 513.003906 416.203125 513.121094 415.964844 C 513.238281 415.730469 513.277344 415.484375 513.234375 415.222656 C 513.191406 414.964844 513.074219 414.742188 512.886719 414.554688 C 512.699219 414.371094 512.476562 414.261719 512.214844 414.222656 C 510.417969 414.042969 508.644531 413.738281 506.894531 413.304688 C 505.140625 412.875 503.429688 412.320312 501.757812 411.644531 C 500.085938 410.96875 498.46875 410.175781 496.910156 409.269531 C 495.351562 408.359375 493.863281 407.347656 492.449219 406.226562 C 491.035156 405.109375 489.707031 403.894531 488.464844 402.582031 C 487.226562 401.273438 486.082031 399.882812 485.042969 398.410156 C 484 396.9375 483.066406 395.398438 482.246094 393.792969 C 481.425781 392.1875 480.722656 390.53125 480.136719 388.824219 C 479.652344 387.25 479.265625 385.652344 478.976562 384.03125 C 478.691406 382.410156 478.503906 380.773438 478.421875 379.128906 C 478.335938 377.484375 478.355469 375.84375 478.472656 374.199219 C 478.59375 372.558594 478.8125 370.925781 479.136719 369.3125 C 479.457031 367.695312 479.875 366.109375 480.394531 364.542969 C 480.914062 362.980469 481.527344 361.457031 482.234375 359.96875 C 482.941406 358.480469 483.742188 357.042969 484.625 355.65625 C 485.511719 354.265625 486.480469 352.9375 487.53125 351.671875 Z M 487.53125 351.671875 " fill-opacity="1" fill-rule="nonzero"/><path fill="#ffffff" d="M 506.507812 369.148438 C 506.507812 369.148438 506.164062 354.785156 507.738281 353.933594 C 509.3125 353.082031 518.199219 365.410156 520.21875 364.574219 C 522.234375 363.738281 532.402344 359.441406 532.289062 361.410156 C 532.171875 363.378906 526.105469 373.984375 527.367188 375.296875 C 528.632812 376.609375 533.78125 385.332031 533.273438 386.675781 C 532.765625 388.019531 518.726562 385.035156 516.871094 386.773438 C 515.019531 388.511719 508.671875 399.367188 507.589844 398.039062 C 506.507812 396.710938 505.949219 382.050781 505.015625 381.265625 C 504.082031 380.480469 490.597656 378.476562 490.371094 376.984375 C 490.140625 375.496094 506.507812 369.148438 506.507812 369.148438 Z M 506.507812 369.148438 " fill-opacity="1" fill-rule="nonzero"/><path fill="#ffda8f" d="M 177.113281 408.039062 C 177.113281 408.039062 181.882812 344.785156 188.820312 338.71875 C 195.757812 332.652344 268.984375 330.878906 275.054688 334.585938 C 281.121094 338.292969 214.816406 356.917969 207.8125 370.347656 C 200.808594 383.773438 195.691406 430.566406 187.445312 439.210938 C 179.195312 447.851562 174.503906 435.0625 177.113281 408.039062 Z M 177.113281 408.039062 " fill-opacity="1" fill-rule="nonzero"/><path fill="#ffda8f" d="M 187.507812 467.835938 C 187.507812 468.832031 187.449219 469.820312 187.328125 470.796875 C 187.203125 471.773438 187.023438 472.71875 186.785156 473.640625 C 186.542969 474.558594 186.25 475.433594 185.902344 476.261719 C 185.554688 477.089844 185.160156 477.855469 184.71875 478.5625 C 184.277344 479.265625 183.796875 479.894531 183.273438 480.445312 C 182.753906 481 182.207031 481.46875 181.628906 481.847656 C 181.050781 482.230469 180.453125 482.515625 179.839844 482.710938 C 179.226562 482.90625 178.605469 483.003906 177.980469 483.003906 C 177.355469 483.003906 176.734375 482.90625 176.121094 482.710938 C 175.507812 482.515625 174.914062 482.230469 174.335938 481.847656 C 173.757812 481.46875 173.207031 481 172.6875 480.445312 C 172.167969 479.894531 171.6875 479.265625 171.242188 478.5625 C 170.800781 477.855469 170.40625 477.089844 170.058594 476.261719 C 169.710938 475.433594 169.417969 474.558594 169.179688 473.640625 C 168.9375 472.71875 168.757812 471.773438 168.636719 470.796875 C 168.511719 469.820312 168.453125 468.832031 168.453125 467.835938 C 168.453125 466.839844 168.511719 465.855469 168.636719 464.878906 C 168.757812 463.902344 168.9375 462.953125 169.179688 462.03125 C 169.417969 461.113281 169.710938 460.238281 170.058594 459.410156 C 170.40625 458.582031 170.800781 457.816406 171.242188 457.113281 C 171.6875 456.40625 172.167969 455.78125 172.6875 455.226562 C 173.207031 454.671875 173.757812 454.207031 174.335938 453.824219 C 174.914062 453.445312 175.507812 453.15625 176.121094 452.960938 C 176.734375 452.765625 177.355469 452.671875 177.980469 452.671875 C 178.605469 452.671875 179.226562 452.765625 179.839844 452.960938 C 180.453125 453.15625 181.050781 453.445312 181.628906 453.824219 C 182.207031 454.207031 182.753906 454.671875 183.273438 455.226562 C 183.796875 455.78125 184.277344 456.40625 184.71875 457.113281 C 185.160156 457.816406 185.554688 458.582031 185.902344 459.410156 C 186.25 460.238281 186.542969 461.113281 186.785156 462.03125 C 187.023438 462.953125 187.203125 463.902344 187.328125 464.878906 C 187.449219 465.855469 187.507812 466.839844 187.507812 467.835938 Z M 187.507812 467.835938 " fill-opacity="1" fill-rule="nonzero"/><path fill="#ffc952" d="M 485.089844 198.746094 L 494.714844 191.84375 C 495.273438 191.4375 495.898438 191.207031 496.585938 191.144531 C 497.273438 191.082031 497.925781 191.203125 498.546875 191.503906 C 499.167969 191.800781 499.671875 192.238281 500.050781 192.816406 C 500.429688 193.390625 500.636719 194.023438 500.667969 194.710938 L 501.277344 206.535156 C 501.296875 206.925781 501.378906 207.304688 501.515625 207.671875 C 501.65625 208.042969 501.851562 208.378906 502.09375 208.6875 C 502.339844 208.992188 502.628906 209.253906 502.957031 209.472656 C 503.28125 209.691406 503.636719 209.851562 504.015625 209.960938 L 515.414062 213.238281 C 516.074219 213.425781 516.640625 213.769531 517.113281 214.269531 C 517.585938 214.765625 517.898438 215.351562 518.050781 216.019531 C 518.203125 216.691406 518.171875 217.351562 517.960938 218.003906 C 517.75 218.660156 517.386719 219.210938 516.871094 219.667969 L 508 227.519531 C 507.707031 227.78125 507.460938 228.082031 507.261719 228.421875 C 507.0625 228.761719 506.921875 229.121094 506.832031 229.503906 C 506.746094 229.890625 506.71875 230.277344 506.753906 230.667969 C 506.789062 231.058594 506.882812 231.4375 507.03125 231.800781 L 511.625 242.71875 C 511.890625 243.355469 511.972656 244.015625 511.878906 244.695312 C 511.78125 245.378906 511.519531 245.988281 511.085938 246.523438 C 510.65625 247.0625 510.121094 247.453125 509.476562 247.695312 C 508.832031 247.941406 508.171875 248.003906 507.492188 247.882812 L 495.832031 245.835938 C 495.445312 245.765625 495.054688 245.761719 494.664062 245.816406 C 494.277344 245.871094 493.902344 245.980469 493.550781 246.152344 C 493.195312 246.324219 492.875 246.542969 492.589844 246.8125 C 492.304688 247.085938 492.066406 247.390625 491.878906 247.738281 L 486.203125 258.132812 C 485.871094 258.726562 485.414062 259.195312 484.824219 259.539062 C 484.238281 259.886719 483.605469 260.058594 482.925781 260.058594 C 482.242188 260.058594 481.609375 259.886719 481.023438 259.539062 C 480.433594 259.195312 479.976562 258.726562 479.644531 258.132812 L 473.953125 247.738281 C 473.765625 247.390625 473.527344 247.085938 473.242188 246.8125 C 472.957031 246.542969 472.636719 246.324219 472.28125 246.152344 C 471.925781 245.980469 471.554688 245.871094 471.167969 245.816406 C 470.777344 245.761719 470.386719 245.765625 470 245.835938 L 458.339844 247.882812 C 457.660156 248.003906 457 247.945312 456.355469 247.699219 C 455.710938 247.457031 455.171875 247.066406 454.742188 246.527344 C 454.3125 245.988281 454.050781 245.378906 453.960938 244.695312 C 453.867188 244.011719 453.953125 243.355469 454.222656 242.71875 L 458.800781 231.800781 C 458.953125 231.4375 459.050781 231.058594 459.085938 230.667969 C 459.121094 230.277344 459.097656 229.886719 459.011719 229.503906 C 458.921875 229.117188 458.777344 228.757812 458.578125 228.417969 C 458.375 228.078125 458.128906 227.78125 457.832031 227.519531 L 448.960938 219.667969 C 448.445312 219.210938 448.082031 218.660156 447.871094 218.003906 C 447.660156 217.351562 447.628906 216.691406 447.78125 216.019531 C 447.933594 215.351562 448.246094 214.765625 448.71875 214.269531 C 449.191406 213.769531 449.757812 213.425781 450.417969 213.238281 L 461.898438 209.960938 C 462.277344 209.851562 462.628906 209.6875 462.953125 209.46875 C 463.28125 209.25 463.566406 208.988281 463.808594 208.683594 C 464.050781 208.375 464.242188 208.039062 464.382812 207.671875 C 464.523438 207.304688 464.601562 206.925781 464.621094 206.535156 L 465.230469 194.710938 C 465.261719 194.023438 465.464844 193.390625 465.847656 192.816406 C 466.226562 192.238281 466.726562 191.800781 467.347656 191.503906 C 467.972656 191.203125 468.625 191.082031 469.3125 191.144531 C 470 191.207031 470.621094 191.4375 471.183594 191.84375 L 480.808594 198.746094 C 481.125 198.960938 481.464844 199.125 481.828125 199.238281 C 482.195312 199.351562 482.566406 199.40625 482.949219 199.40625 C 483.332031 199.40625 483.703125 199.351562 484.070312 199.238281 C 484.433594 199.125 484.773438 198.960938 485.089844 198.746094 Z M 485.089844 198.746094 " fill-opacity="1" fill-rule="nonzero"/><path fill="#ffc952" d="M 95.195312 541.71875 L 104.820312 534.863281 C 105.375 534.46875 105.992188 534.242188 106.667969 534.183594 C 107.347656 534.125 107.992188 534.242188 108.609375 534.535156 C 109.222656 534.828125 109.71875 535.257812 110.101562 535.820312 C 110.484375 536.382812 110.695312 537.003906 110.742188 537.683594 L 111.347656 549.503906 C 111.371094 549.898438 111.457031 550.277344 111.597656 550.640625 C 111.742188 551.007812 111.9375 551.34375 112.1875 551.648438 C 112.433594 551.953125 112.726562 552.210938 113.054688 552.425781 C 113.382812 552.640625 113.738281 552.796875 114.117188 552.898438 L 125.597656 556.179688 C 126.261719 556.367188 126.828125 556.710938 127.300781 557.207031 C 127.777344 557.707031 128.089844 558.292969 128.242188 558.964844 C 128.398438 559.632812 128.371094 560.296875 128.160156 560.953125 C 127.949219 561.609375 127.589844 562.164062 127.074219 562.621094 L 118.121094 570.441406 C 117.824219 570.703125 117.574219 571 117.375 571.339844 C 117.171875 571.679688 117.027344 572.039062 116.9375 572.421875 C 116.847656 572.808594 116.824219 573.195312 116.855469 573.589844 C 116.890625 573.980469 116.984375 574.359375 117.136719 574.722656 L 121.730469 585.691406 C 121.992188 586.324219 122.078125 586.980469 121.980469 587.664062 C 121.886719 588.34375 121.625 588.949219 121.195312 589.488281 C 120.765625 590.023438 120.234375 590.417969 119.589844 590.660156 C 118.949219 590.90625 118.289062 590.972656 117.613281 590.855469 L 105.933594 588.804688 C 105.554688 588.734375 105.167969 588.71875 104.78125 588.765625 C 104.394531 588.8125 104.027344 588.917969 103.671875 589.078125 C 103.316406 589.238281 102.996094 589.453125 102.707031 589.714844 C 102.421875 589.972656 102.179688 590.273438 101.984375 590.609375 L 96.308594 601.003906 C 95.972656 601.59375 95.511719 602.058594 94.925781 602.402344 C 94.339844 602.742188 93.707031 602.914062 93.027344 602.914062 C 92.351562 602.914062 91.71875 602.742188 91.132812 602.402344 C 90.542969 602.058594 90.082031 601.59375 89.75 601.003906 L 84.023438 590.609375 C 83.839844 590.261719 83.601562 589.953125 83.316406 589.679688 C 83.03125 589.40625 82.714844 589.183594 82.359375 589.011719 C 82.003906 588.839844 81.632812 588.726562 81.242188 588.671875 C 80.851562 588.617188 80.460938 588.625 80.074219 588.691406 L 68.394531 590.742188 C 67.730469 590.851562 67.085938 590.785156 66.457031 590.546875 C 65.828125 590.308594 65.300781 589.929688 64.875 589.40625 C 64.449219 588.886719 64.183594 588.292969 64.078125 587.628906 C 63.972656 586.964844 64.039062 586.320312 64.277344 585.691406 L 68.871094 574.769531 C 69.023438 574.40625 69.117188 574.03125 69.152344 573.636719 C 69.1875 573.246094 69.160156 572.855469 69.070312 572.472656 C 68.980469 572.089844 68.835938 571.726562 68.632812 571.390625 C 68.433594 571.050781 68.183594 570.75 67.886719 570.492188 L 59.015625 562.65625 C 58.5 562.195312 58.140625 561.640625 57.929688 560.984375 C 57.71875 560.328125 57.691406 559.667969 57.847656 558.996094 C 58 558.324219 58.3125 557.742188 58.789062 557.242188 C 59.261719 556.742188 59.828125 556.398438 60.492188 556.210938 L 71.972656 552.933594 C 72.34375 552.820312 72.695312 552.65625 73.015625 552.4375 C 73.339844 552.21875 73.621094 551.957031 73.863281 551.648438 C 74.105469 551.339844 74.292969 551.003906 74.429688 550.640625 C 74.566406 550.273438 74.640625 549.894531 74.660156 549.503906 L 75.25 537.683594 C 75.292969 537 75.507812 536.371094 75.894531 535.804688 C 76.28125 535.238281 76.785156 534.804688 77.402344 534.511719 C 78.023438 534.21875 78.675781 534.105469 79.359375 534.167969 C 80.042969 534.230469 80.664062 534.460938 81.21875 534.863281 L 90.847656 541.765625 C 91.167969 541.988281 91.515625 542.152344 91.886719 542.265625 C 92.257812 542.378906 92.640625 542.433594 93.027344 542.429688 C 93.417969 542.425781 93.796875 542.363281 94.164062 542.242188 C 94.535156 542.121094 94.878906 541.945312 95.195312 541.71875 Z M 95.195312 541.71875 " fill-opacity="1" fill-rule="nonzero"/><g clip-path="url(#114e6d42e0)"><path fill="#ffc952" d="M 496.519531 626.335938 L 506.148438 619.433594 C 506.707031 619.035156 507.328125 618.808594 508.015625 618.75 C 508.699219 618.691406 509.351562 618.8125 509.972656 619.109375 C 510.589844 619.410156 511.089844 619.84375 511.472656 620.414062 C 511.851562 620.988281 512.0625 621.617188 512.101562 622.304688 L 512.707031 634.125 C 512.726562 634.519531 512.804688 634.902344 512.945312 635.269531 C 513.082031 635.640625 513.277344 635.976562 513.523438 636.285156 C 513.765625 636.597656 514.054688 636.859375 514.382812 637.078125 C 514.710938 637.296875 515.066406 637.460938 515.445312 637.566406 L 526.925781 640.847656 C 527.589844 641.03125 528.160156 641.375 528.636719 641.875 C 529.109375 642.375 529.425781 642.960938 529.578125 643.632812 C 529.730469 644.304688 529.699219 644.96875 529.484375 645.625 C 529.269531 646.28125 528.90625 646.835938 528.386719 647.289062 L 519.511719 655.128906 C 519.21875 655.390625 518.972656 655.691406 518.773438 656.03125 C 518.574219 656.367188 518.433594 656.730469 518.347656 657.113281 C 518.257812 657.496094 518.234375 657.882812 518.265625 658.277344 C 518.300781 658.667969 518.394531 659.042969 518.546875 659.40625 L 523.136719 670.328125 C 523.402344 670.960938 523.488281 671.621094 523.390625 672.304688 C 523.292969 672.984375 523.03125 673.59375 522.601562 674.132812 C 522.171875 674.671875 521.632812 675.0625 520.988281 675.304688 C 520.34375 675.546875 519.683594 675.609375 519.003906 675.492188 L 507.34375 673.457031 C 506.957031 673.390625 506.566406 673.378906 506.175781 673.433594 C 505.785156 673.488281 505.414062 673.597656 505.058594 673.769531 C 504.703125 673.941406 504.382812 674.160156 504.101562 674.433594 C 503.816406 674.707031 503.578125 675.015625 503.390625 675.359375 L 497.636719 685.707031 C 497.300781 686.296875 496.839844 686.761719 496.253906 687.101562 C 495.667969 687.445312 495.035156 687.617188 494.355469 687.617188 C 493.675781 687.617188 493.042969 687.445312 492.457031 687.101562 C 491.871094 686.761719 491.410156 686.296875 491.074219 685.707031 L 485.382812 675.3125 C 485.195312 674.964844 484.960938 674.65625 484.675781 674.382812 C 484.390625 674.113281 484.070312 673.890625 483.714844 673.71875 C 483.363281 673.550781 482.988281 673.4375 482.597656 673.382812 C 482.207031 673.332031 481.820312 673.339844 481.433594 673.410156 L 469.769531 675.441406 C 469.09375 675.5625 468.429688 675.503906 467.785156 675.257812 C 467.140625 675.015625 466.605469 674.625 466.175781 674.085938 C 465.746094 673.546875 465.484375 672.9375 465.390625 672.253906 C 465.296875 671.570312 465.386719 670.914062 465.65625 670.277344 L 470.230469 659.359375 C 470.386719 658.996094 470.480469 658.617188 470.515625 658.226562 C 470.554688 657.835938 470.527344 657.445312 470.441406 657.0625 C 470.355469 656.675781 470.210938 656.316406 470.007812 655.976562 C 469.808594 655.636719 469.558594 655.339844 469.261719 655.078125 L 460.390625 647.242188 C 459.875 646.785156 459.515625 646.226562 459.304688 645.570312 C 459.097656 644.917969 459.066406 644.253906 459.222656 643.582031 C 459.375 642.914062 459.6875 642.328125 460.164062 641.828125 C 460.636719 641.328125 461.203125 640.984375 461.867188 640.796875 L 473.265625 637.519531 C 473.644531 637.410156 473.996094 637.246094 474.320312 637.027344 C 474.648438 636.808594 474.933594 636.542969 475.179688 636.234375 C 475.421875 635.925781 475.613281 635.585938 475.75 635.21875 C 475.890625 634.847656 475.96875 634.46875 475.988281 634.074219 L 476.59375 622.253906 C 476.628906 621.566406 476.839844 620.9375 477.222656 620.367188 C 477.601562 619.792969 478.101562 619.359375 478.722656 619.0625 C 479.339844 618.761719 479.992188 618.640625 480.679688 618.699219 C 481.363281 618.757812 481.988281 618.984375 482.546875 619.382812 L 492.171875 626.289062 C 492.488281 626.515625 492.832031 626.6875 493.203125 626.808594 C 493.570312 626.929688 493.949219 626.992188 494.339844 626.996094 C 494.726562 627 495.109375 626.949219 495.480469 626.835938 C 495.851562 626.722656 496.199219 626.554688 496.519531 626.335938 Z M 496.519531 626.335938 " fill-opacity="1" fill-rule="nonzero"/></g><path fill="#ffc952" d="M 670.378906 187.269531 L 677.558594 182.121094 C 677.976562 181.816406 678.445312 181.644531 678.957031 181.597656 C 679.46875 181.554688 679.960938 181.644531 680.421875 181.867188 C 680.886719 182.09375 681.261719 182.417969 681.546875 182.851562 C 681.828125 183.28125 681.980469 183.753906 682.003906 184.269531 L 682.449219 193.089844 C 682.464844 193.382812 682.523438 193.664062 682.628906 193.941406 C 682.734375 194.214844 682.878906 194.464844 683.0625 194.695312 C 683.246094 194.925781 683.460938 195.121094 683.707031 195.28125 C 683.949219 195.445312 684.214844 195.566406 684.496094 195.644531 L 693.007812 198.054688 C 693.503906 198.195312 693.929688 198.449219 694.285156 198.820312 C 694.640625 199.195312 694.875 199.628906 694.988281 200.132812 C 695.101562 200.632812 695.082031 201.128906 694.921875 201.617188 C 694.765625 202.105469 694.492188 202.519531 694.109375 202.859375 L 687.546875 208.714844 C 687.097656 209.113281 686.804688 209.609375 686.667969 210.195312 C 686.535156 210.78125 686.582031 211.355469 686.808594 211.910156 L 690.238281 220.109375 C 690.4375 220.582031 690.503906 221.074219 690.433594 221.582031 C 690.363281 222.089844 690.167969 222.542969 689.847656 222.945312 C 689.527344 223.347656 689.128906 223.640625 688.648438 223.820312 C 688.167969 224.003906 687.675781 224.050781 687.171875 223.960938 L 678.460938 222.4375 C 678.171875 222.386719 677.882812 222.378906 677.589844 222.417969 C 677.296875 222.457031 677.019531 222.542969 676.753906 222.671875 C 676.488281 222.800781 676.25 222.964844 676.039062 223.167969 C 675.824219 223.371094 675.648438 223.605469 675.511719 223.863281 L 671.214844 231.539062 C 670.964844 231.980469 670.617188 232.332031 670.179688 232.589844 C 669.738281 232.847656 669.261719 232.976562 668.753906 232.976562 C 668.242188 232.976562 667.769531 232.847656 667.328125 232.589844 C 666.886719 232.332031 666.542969 231.980469 666.292969 231.539062 L 662.046875 223.78125 C 661.90625 223.523438 661.730469 223.289062 661.519531 223.085938 C 661.304688 222.882812 661.066406 222.71875 660.800781 222.589844 C 660.535156 222.460938 660.257812 222.375 659.964844 222.335938 C 659.675781 222.296875 659.382812 222.304688 659.09375 222.355469 L 650.402344 223.878906 C 649.894531 223.972656 649.398438 223.929688 648.917969 223.746094 C 648.433594 223.566406 648.03125 223.277344 647.710938 222.875 C 647.386719 222.472656 647.191406 222.015625 647.121094 221.503906 C 647.050781 220.992188 647.117188 220.5 647.320312 220.027344 L 650.746094 211.828125 C 650.976562 211.273438 651.023438 210.699219 650.886719 210.113281 C 650.75 209.527344 650.457031 209.03125 650.007812 208.632812 L 643.449219 202.777344 C 643.0625 202.4375 642.789062 202.023438 642.632812 201.535156 C 642.476562 201.046875 642.453125 200.550781 642.566406 200.050781 C 642.683594 199.546875 642.917969 199.113281 643.273438 198.738281 C 643.625 198.367188 644.050781 198.113281 644.546875 197.976562 L 653.042969 195.5625 C 653.324219 195.484375 653.589844 195.363281 653.832031 195.203125 C 654.078125 195.039062 654.292969 194.84375 654.476562 194.613281 C 654.660156 194.382812 654.804688 194.132812 654.910156 193.859375 C 655.015625 193.582031 655.074219 193.300781 655.09375 193.007812 L 655.535156 184.1875 C 655.558594 183.671875 655.710938 183.199219 655.996094 182.769531 C 656.277344 182.335938 656.652344 182.011719 657.117188 181.785156 C 657.582031 181.5625 658.070312 181.472656 658.582031 181.515625 C 659.097656 181.5625 659.5625 181.734375 659.980469 182.039062 L 667.164062 187.1875 C 667.636719 187.535156 668.167969 187.71875 668.757812 187.734375 C 669.347656 187.75 669.886719 187.59375 670.378906 187.269531 Z M 670.378906 187.269531 " fill-opacity="1" fill-rule="nonzero"/></svg>